<mxfile host="app.diagrams.net" modified="2023-11-29T03:00:09.623Z" agent="Mozilla/5.0 (Windows NT 10.0; Win64; x64) AppleWebKit/537.36 (KHTML, like Gecko) Chrome/119.0.0.0 Safari/537.36" etag="E9eS53kzLiO9WedCP1IH" version="22.1.4" type="device">
  <diagram name="Page-1" id="zqgTuZiPlgCHTxgTOdOG">
    <mxGraphModel dx="1114" dy="602" grid="1" gridSize="10" guides="1" tooltips="1" connect="1" arrows="1" fold="1" page="1" pageScale="1" pageWidth="1100" pageHeight="850" math="0" shadow="0">
      <root>
        <mxCell id="0" />
        <mxCell id="1" parent="0" />
        <mxCell id="lkZIMJi9Efqeuj9NXLdD-1" value="&lt;font style=&quot;font-size: 14px;&quot;&gt;&lt;b&gt;Enhanced Profile Interface&lt;/b&gt;&lt;/font&gt;" style="shape=document;whiteSpace=wrap;html=1;boundedLbl=1;fillColor=#dae8fc;strokeColor=#0000FF;strokeWidth=3;" vertex="1" parent="1">
          <mxGeometry x="276" y="120" width="120" height="80" as="geometry" />
        </mxCell>
        <mxCell id="lkZIMJi9Efqeuj9NXLdD-6" value="&lt;font size=&quot;3&quot;&gt;&lt;b&gt;Chat Scraper&lt;/b&gt;&lt;/font&gt;" style="shape=parallelogram;perimeter=parallelogramPerimeter;whiteSpace=wrap;html=1;fixedSize=1;fillColor=#dae8fc;strokeColor=#0000FF;strokeWidth=3;" vertex="1" parent="1">
          <mxGeometry x="57.5" y="387" width="135" height="70" as="geometry" />
        </mxCell>
        <mxCell id="lkZIMJi9Efqeuj9NXLdD-7" value="" style="group" vertex="1" connectable="0" parent="1">
          <mxGeometry x="71" y="157" width="110" height="140" as="geometry" />
        </mxCell>
        <mxCell id="lkZIMJi9Efqeuj9NXLdD-2" value="&lt;font style=&quot;font-size: 14px;&quot;&gt;&lt;b&gt;Calliope&lt;/b&gt;&lt;/font&gt;" style="shape=actor;whiteSpace=wrap;html=1;fillColor=#dae8fc;strokeColor=#0000FF;strokeWidth=3;" vertex="1" parent="lkZIMJi9Efqeuj9NXLdD-7">
          <mxGeometry width="110.00000000000001" height="140" as="geometry" />
        </mxCell>
        <mxCell id="lkZIMJi9Efqeuj9NXLdD-3" value="" style="shape=image;verticalLabelPosition=bottom;verticalAlign=top;imageAspect=0;aspect=fixed;image=data:image/png,iVBORw0KGgoAAAANSUhEUgAAAIAAAABECAYAAABJRz1pAAAABHNCSVQICAgIfAhkiAAAAAlwSFlzAAAOxAAADsQBlSsOGwAAABl0RVh0U29mdHdhcmUAd3d3Lmlua3NjYXBlLm9yZ5vuPBoAABu/SURBVHic5Z15vE7V/sffz3MOQnRMyRAihRQSqdzmGQ23SLkpMqZLpUlXbJS60qBUFBU36nKrq0H5RSWVVIZSxLkyVeiY4pjO4ezfH5+17f3sZ+/9PIdzNH1er+fF2Ws/a6+91nd9h8/6rvXEKBZYtYAHgUuBksAc4F6wFhTP8/5osMoAQ4BrgNLAl8CdYH1T1E+KFXWFYFUEvgJq+gp2AS2L4yX+WHiiFGyeCzTzFeyB+Hkw6JOifFq8KCszuJ/kwQdJ8phieN4fDJv7kzz4AKWgYBxFPGmLQwAuiCg7HR4uWwzP/CPh4oiyBjCsTlE+rDgEwC6GOv9MSDUmRTpmRVlZBnAtLKoUfsvafLhzHHBsET73j4Sa8HVGePGWfXDfrUC1onpgUQhACaAz8A3QB+b2gb3rk2/LL4A95wCLgE+BsRThi/zOURcYBSyEdxbAvuzkWwqA3GuBHcAS1H9HHcI2JqEk0BP4HngPOMtcPwzKLoO/5sK9uTBoG1y3B6rNQKEhQCXgYWAjchqPOMRt/63gRGAisB6wgIq6XLkbXJ4LA/LByoN+q6HWGuCf5ntVgIeAHPNvhUPZ6FJAD2AtGvhWvvIHgTdM4+qYa28DtwA/AS0899ZEkrwBuBtFCn8GnAG8CaxDA1/eU1Yd9cfniAcAqAFsNvef4rn3aKQ5HEE42IlklwS7VEhhWaAf8INpfIuAe5qaRt6FBt3BZUjtXw98jbSHFw2AKcAaJFyZB/gCvzLurwHWcTAlzI63Rn33PerLw3zlMWA68BiaLN5+ehN4BnEs/v6rjSbSekInkh0Huz7Yx4LtDyXtU8CeDfY+85kNdnNTWM409kfTiJNDXi4TWAB0QoN9macsA1iNBGQakvogtARmAUuB9uyPeYdXAWsiWLlg5YP1EVhh7fgVYDUG6zOwbPP5CYa0N4VxoB0wD1iM/KUwAb8ZsX6jgGG+ssuAj4H/AveFfL8hMinrkCAYAbMvB3sV2Lb5rAS7jfmOXR/sXE+h+RTsgPMdOz0FzdIoDAbeQnZtbcBLWsBopOJyCCY7HJwPzAfmQfV2YK30dK7zyQPr9BRtOgS4vwZYmwPaZ8Olo5HDNp8EgQ5EXdQvJ5t/a/vKnUl0DprpJ0TU1RiN2Wro+gDYecnja+eD3SIG9tuIsw/AFz9Cy3OAAK80AQ2BD4HmwD1IaCzfPTWR+qoF/A3ohWZ8fkidMeBqaPssnJIVcs83YJ2Yom3FDOt5oEtw2Y48eLQ97HsjRSVx1H9TEWXeBrgy4L5hwOHAd+aZZwD7Iuo9FRZPh8YVQ8pnxzT7CWPndkIsFXOXAcwFngVeRna8CfIV/JiGHMTngf9D6v6h6OoHfwWxkyJuqAZWQNh5qGB9Q+RszKwFA9emqGQAcB5iUb8A7kX940cd5BzWRv3o+AsRsHcjxz0Iu+KEz0CkJlKiP/ALMB7oiOxU0OCDHJWeiC3sBdxJStMS2xtdXjJqBhwKbI8os2FvVDlostyKZvSpQBYwM+TeVcjP+itylu8hNakW9fxtcSRJIXilFFLlYSr4ODSI3kGNWvB5F8WwJwMrEAcwjnBCqhYsjhrgz+HenIjyQ4F/hxet+wGssL4Dzcx/oT5cC/RGnn5BxHeeA7oBK4ER5u8w36IUfLI4oq7JceAO83AfcjfDnNaIrVuBVLX3ZeJo8CwU1jQFjiRYdTkoQJqih/l7lPn377776pmy+TD9C8hfkVxVng2znot41iHC/Rmwakfy9YJ18PYkpLInEjxTh6K+m4jIsXbAiykeOA1NvIZI/ZcEbvLdcziK3FZAm9LwS0D/MR83mrArgD0a7GzIWwljdkPFHOSwgWzPWGATriD0Az7Bnb3PItuVCkchUsMhPxqYeo9F6tAJYyz2M1ylX4e2m2DARtl76zVo0gU5m1Grj8WNvkA2lK4JQ3qCNQNuXQWXbIRyL5h7yqGQ7Gf0bvXN9TPQe1Y1f9+JfKN08BCa/aD+24Cc7Cqo33JQyG5Io7vKwZD1MKsAdswBuz/YJaIe8AbwGrJFXvVSBwnCFsRJO6xUOTSI1dN8gVeR2XDwvGn0aqQNynjKrkWh1BaSKc8LzHNDophihUODH+27fhRq62rgEs/1CijLJwdpzv/hciUxYDnB5FoQjkWhoEMIPYb8g03A08AxvvtHouhiepr1cwlyNuYAfXxlMXN9LprJDyFHcGpyNQ9WACtIKC5Ei0JtkRb5znx6++6rhl50JLKVQTgbvfhfI9+oaHEjGuC6IeVTgceRafULbRYihPKQOayL299exGDY8WA1CmEWZyGN+y+kCdeTOKkctEZO+WIK0UcxFPtfgdTLcZ6yHojVykDhyCgUSbzC/pcd2gSsjz2kyEofM3YZsBtJfWdTVxPzIrXcR/E6IpgWIQIkDGcgYbwh3Rc8CFyNWNGGEfecC3yLhOAlX9mFSHPUQKZhAxKUAe4t1plgLff0348wpJ2njtPRGOxCkcARiFhbh/wwB2XRON6BqOUktR+x9kwZ86CpwEDknFRDA321afgvwFbgIiTBz8KRtaH5SIgd76krC2gPGeVh5SjT2DnIkx2GIogN5r7eptO6ms56ErgOaZmwZJO1yFxNQIKwMOK9DgZXIDbzQmSWwrASac7HUXiXY+6vhCKhG9CM/AStmfRFpNgpcPEOqPkmrm8AMrEdocw+yB6GNNAzwGnAbWj2r0fmpz0y3yDTsB5NuoUEOOhR1GQVYBmyN5OB94Ezgc9Q+ObgeaS+RwC1ofPbUDeEGMndCSMvQlxBZaQB6iGbCeKuFyIB6IvIkT5oxt2fVF0ymgEzgAdwI4yiwkVIwNogDzoVbkU2/VFEkTczbVqDHD4HD6D3Hgz0gc5Doa5/scdg424Y3RONx15T9040QUFh5UJkGraZ9p6CGNjWyO9IQKoEw0mImfoPSvhYB5yESx5lIWk/Dkk5YH0LNIqos4YWSwDF0B8BT3nKz0ACch/wCLJfYcxiEE5Cy9QPI9+hKHABEsq2qD/SQRZS9Q1QxHQVom2bI/MHcuJWo1yK5bo0OAdilUPqtKFiaei7x/zdEGm+2kggMHU5AtLdtKMHWl9JQqqMoDHIsdiLhMX5OLgeqTQvGbMroj4bSawDhxn04iRTx8mo0+aR/uCDlpvPQSYjbNWsMDgLDf6VpD/4INP4OjIB49AkeRF38EGmdDH7Bx/QzA3DTuib5/l7KeJo2nquzUamORep/O6ILApEKgGYgwZ/JrLFS4B/eMp74jJ/caAzfBjmGQMr94LVn/2ZL3yA1NZp5u+6KFRqjYilAaQfG3uxBA1cD9wspAPBaWhV7Rq0xF1YjEY+zRjkrd9BYtjoMH8g+/0QfByRJrf8Z5IJpXGIGXRwAfLfyqMJ2gQtIQcinZzA101lwxDV2w05LK2RE/kRco6+VtmXV0Lu0uRq8rbDhnNNXcuQPTwSSWdP05bnkU1cgGZvAxRuHgiWmzZ2QLFxYfMfm6J374pW6g4EC5HGrIv6bRTwgrnWCKnuxeb6UqA6fNsCtqxKrmrvMpg+ETmOXmZxKlpDqI3U/TjkZPYAnkALdHuSqksTlVD48AtuAuKVprEvI2/zM/OiDulRAeI/QLfRJhRcCP0nQlmH7QOFek4q01ikLgci2+8M1P2ocyYdaOM9z8pGTGW6QnAS8ncuS3VjCtRFffe++TuOtOrNyP9ZhDiMUbgJsg0gvgH63QvWm2C9A1fMhJJvmXI/s1gPaefByFQ5q4OZyNy+eDAv8BJyxMbgepog25KPZllHEv2C502D/LgdzSTvINRCKnA3klKHCctAoV0rZP8PdiBqIq0zkejQFzQzf0L2+WCQgczG7STmR/ZEJNA+NGiHe74TR5OgB4nIRP6HN++gItKWG5Ep3Y7e0WFRr0Ta8yfkWKcD+2h9ADkW2abCpshbbYwiggJEBZ/rq+B8REmWC6jcebm+vusZSKPkmpcZjoRqnqcdP0LjqjD0NH0sfy5dOqiGfIMp7CdEhldRRs9+1EeCd13hq7+/NlidYcgNYNVBodh7aHKMQv02z7ThMyQUfmG8A2mLoOisEeJK/JlCldAkshH/72zLexv5AB2ApfBoRbD/AnZrsMv46rAvAnu5my60Lxva/Yyb6l3LNDgHxbCrUZz7Pe5glzV/R21tqotUV33PtQHIyfwGef2jkEaYxX6z85dP4d7dHmZsM1g3RjwnDEcCX0G9j2HQAk9930Ov7qb9/tmXBobcDdaexHS1s3OReu6M4u885E9kIH/pc5Q86+AY1Df1Ih50F/K5/KZsiqlzO5pEz6GxMsmhg+bDrt2edLAtYHcBiIHdFEmmj3woKIA5F8PZbVAK11zT+JGI4ToJORz7kFp7DKmlVHTsbUi9ngkcjyS+JVJZLUx5NnKW/gYnfgBXXRXw0jbELoHBM1I8z4f2TaH+l1DSN/ts4P0nYY5fQ6WA1RH5QwGYtgUWzkPrJYORKd2AZuylSAjORVrhA7RI9kTEw+Lmvtdwia6OyDw7XMK5yAS3BMbCvI+h5b9J1io2cHEcd03Z/6w4ZLyN67F2QKzSUFUMSAuch+zcNebfVBiFTMhtKDQagNixCahTeqM179uAZnDOmQQ7bzGwH0jjeT6ccFfy4JvqOM9v0lKhNBQMDi++9BfkHM9Gg97bfJ5GpnIAeu+/I7P0VGA1LgoQDTwQpaFVw6WbNyEz0w6ZibbALij5MsEmJQYMi4G9k9ANGfYeiHvt7UgUCtZA3i2IdJlhrqcbs9dHHvD7psEOJiCevSPqNMCKaF9BAQx9Nc1nGtx5KZSNyHMc8SXsdDosC3VUBm7+QkncHMrdMLAUZIYxqvvAKoFmWybyL0qjAXL6bxZydlsQvb7gRW8UVq5DtLQjhM2Rn7WI/dyKnUfAIpDT/kzkfIUJgD/TZRMKLbxs1tnoxc4lfQEohzo2C81uJwVqDlr/n+N7ZtB5A0DBNgKXoaOQ0YrwJNh9UOp22OmwlVvR4BXgDlg+6jODzGxC8/L2ON8HEWrfoTUQp64Y7vv7HbMojEET7mQSs4fno7F4xXNtI+F7MDfGkQMRgnFlkENR1zS0G3I0rjI3nGgacj5a7GgfUIkfpdBM745evJ+nrKVpsON8ngiLthCKzDFIAArxOSxCSHPnwJY5qCPnI5r1e6Sut5hPbuJ3Yo+H1/dhFm6uQgbSfEfjCmBXtJTbBZnDdLfG1UTJN6UQ0+egOnImPfsltob4JwCMj6NwJeDYluzdML8xiiPnITW/DUUBvcwLjUfU8Erk7T5B6h2rQ5FXPAnZs3uRj1EWOYejTZ1vAv8H706DfbMD6vkA0caFxMxR8PMvyde374VnTyF6nT8Ag5/GDcM8WDUfllVEWThTkBDlINN2LZqVDyCn+T9oxc6/GygIMURqPYJC6gm4W8y6IEG/wLyHBdU6w6J1AfXMQCE3gH0Y2P8wW8Jm6/9l38Xl/csjIdmJPNU9KAKYRaKD8QBy4MLQiuSkhb8jwqSL+fcdFFkM9LzYndBqKViTwJqsENA6kK3tZYCZkPkF3DUYrDlmS9cIOO1YtOy8heRYOw1YrcAaBEMGw43tUEjn7H46BpmTAsR5fIOb7OKgEiK9ziIaPRGP4Oy8moJ2DceRtroQUem7kLNZC8pVhq5bYM10sCeAfV3A/sAkHG1e4gSkWjah2d0fDaKNIgMvSqC9bUGhYBnEVF3lu56JKN/daJZ0RiHg3aa8jmnHwR4qURY5nbMJJqpAqjUHhWpVQ+5JFzehgchEsf0GxMgtQX23A/kDXrQlkVvxw+EKvHspKiPB7Y/8jI1Io3yHOzknotyBQqM7kjYLd9UqhjrSRkIxnQSbwwkoC6UWWOU9efGPk5jX5xwssQTFrwW49qwlsr9xRDvfcSCN9+AIxGO8TyL1GoR6yElbQfhApIMYUrN3oOjJUbeVkSbdhRzKsSSGueNJ2FthOTPd2T7mD7UrI7W/D2kDh8ldjLTJuchEp3rv0JeYaRra1FzrjnyCaWjPfw8ktbNQRAA0eQZu3uoyYwOWQb2fEVFUCg18NgpZ2qEl21m4ZBPICRuJFpoiU5hTIMu09y2St2OH4Tjk7H5TiO8EoTaakZtwM3WnIO5lMxpMZ+3+NlNeHiqthds+NexiAVifQssnSGQBnUMinM27+Uh4HPRF0cAKZBYOGB1N5ceh+P9n5P07tgak5m4AlkHVL2HQruSdsoPzofEI3PMFTvV890ekObyz/U5kFg5mG3gVFBP/m8ILUVM0S+dycOcVTEaDFEOLWt8hofoXGvQ4Us95wCao3hUGbkzuv/ts6HAVmvEW7kpqTUQRT0Am1FmVzTLtj1xNTceR6oTWoMcjp+JppF7eQyqyFbI9E4CG0NH2kUcGsUw48wbkoTr75TENXo2yaHsg238CIjIKkDk5EFRFWmWJeYd09jl6sQiFtyejhZUDPZ/PyeG/DUU43ZBgP4OWhW2kCbKA6dBsHGQGHLSVARw9GjmR1ZCD2RNNnpvQuHRFYXtFRLPbaKxCkUoAaqGBaGta0ABP6IDCkV6e+wuggn9TggdHVoIpy30Xu+ISSKuQZzwdCcFkQrdeR6IGcvbmonWMFBtMQ/EJEtBzSE7vTgfNUMTTEUVIM5DZA0U823FXVHcC10PzoG1cBuWOghZno4F30uTOQlHZPOTjvIYEbTwyEZ2iGphKALqhQSiFvPGKJLJyLyC15tl/bkdknxTshQ7ejY9Vkd/g3WA5GXXa62hRowep1/C9qIWcJYeejtpomQ7eR8vDHZAjWxjcwv5QjJ0k7nkATSDfZpj4bsJhw1X+/Eh/zt89yDzvRrxCCRKd9MSnRTwsE83OZ9GLv4wkajyuOtyI1OMNiCPvAQsiDipavgcROK3Nhc5ooL1bmB9CXMBNyC5uIH0npjbuLOhH0R1a+R8kiLeQGLtHIQvRtK8idX8NivWv99zzEtIunpyE9REqe8squMerzSohDeXVTvXQhKmFm3LXPazGqJl1OWKTvkYqpwNutkoGbm58DnJibgHKQV4PaNqa5Bh3DZRuAp9uQIzhZSjXfpDKAC0RDzDXc5DafA4xZ68QjTpIuKaiWVDUcNK3HkSM6Gcp7r/Z3HcqCnOfRGp6InIAdyABr4Mc7ErAW/B1a2i8C0r7nFY7FybPg20jUEi3ADGp23GXo+NI+Ecg7787Yl6fQg5jlHZJwrtIPa0iMae8IYoEaiPqdqmp+Bb3lofLgjVc+YDW12A9Cg95NUMJpJ7ykDN5MjIzS1CCKUjLvIsYQf+WMT+ORzZxYMQ9RYV/IJ8iKu8hhkivPmhxxrutfjiJC1hDUAy/D5muo8E6HKyRYP1P28Ksl9ER/CDa3DlbcD2Ju6NvR5MghptGdiMysf59l5FwMnfGkRhbOngBSd4XSD33QmqyMBiH1gH6ovWGxSg89KK2acdkwlVvQ+QJ9wspLw6MRELQLqT8QqQ5s0ncIQwS9G+RaV2PopONpHDWAtAJcQjO0XANSGZMnTSyTmitIQp2DOy6+sQfxN2Q4d3d2grZ2KXmJRwPvRwiNtLdHn64ud9ZODodcfAbkHB5I4meiJBZC7dmacfxfjRFHeA/IOFQ4Dk0eH/Rn1YmDG2uNYFSb6AQ9AXfdzKR5tuJnNMXESfQCTmthcGLaMafgDTCbuSP+VcU71Zbyq+Aib3APgds/3K43QbsFW7O2Kq90CYfd625MdpcsBo3r+0kNGDOoD+N7Hk66Iq7aJSBm/F6OIkpz8cAMaj+Edy0y7BiNliLoG0X8/xDsSM4DK8BedDpVm13c0ibewqg1Vbc6KgMrg3egXwmZ48AyIFeT+Iu7CgcgSZQFfN3VzQpp5J8WGQc+n4Hud6j4jZrQQgAu1nwOXJ7C+C/7Ug8gdJP8FiIYgUJxBrSY80+wU31DsqErch+tqvaJBi0PZkZG2TDGemcSFLMqD1XLF3QOYH9O6H+y0Pq2rvcWwYtiztJtP9E+xnTQR9cx+8oNBGclccTcU9d7Qc5bcAuCDgnsADsi+MoxAugSTNiUOVVZF/rmwb6vcjhaPHhOmTz1pC4Ty0IDdDMno5ClrsR3+AN2TYjATgBLj0F4gELGXHggqCz9A4xumwND6byXkLRVC80a717FXeiiGoMMqFjkRZMJzPoJtzYfzTyJ5wt8YtRxNYWOAM2vEYR5gQGoTmyPU2QR/o3olPDR6DBvgdFAO+g5IYQWGsJTQkDoKzJG/yVYP1E9LH35cDKjSgfjzj7W1BfvIzMXxhaoJC4Ptqq/jDyhUJCvIJ80fCB2B0nKcXJi1jUTlUH8xGVOxrZoGaE57aXQESIc7rmEaRm16Ji13yoVliOv6ixOaJsJzSK2i0NWse/HDmTTuZwFBzmrxyK7521hRDEoo7Ry4kTSbC8EEPqJBVlPAR5o+3QolDQWTWgtO//IXv4IFKBUecAHg9fRZW/BT1/ZQGITQgv2/Cpj/oOwlY06OOQL1SN8BXQwxH38iLSmtNw1xbCMC6qzMkJDIoRv4JHr0P2K5voY9z3oBn9JPKMbyR4Hf0m3L2DzxF+lEtl5CXPgfcmgR30U3M/Qab/fMFfAQ2dE0B82JUNL1ZBjOF5KSp5C/XFQDRgYRPoWkT0NEDkXConuCKUi8HMvICyt3G3ztulwL4b7PfN527f7wY459yvJPicewcjES89g2RiwzkfsD1iyYLqKIOcQmet24Q5j5YGawhYC8BaDNYT6PcJfyuIgXUdWK+A9SoM6QNjS+j6/vf9mP2cQSAqI0LsItRPQWsqnyNzkU30htmyuOH0WJ1jaHcE+3mwx4PdIZ2cwCA4v3SxGgmC33k8DNG5E0hWTfcg1bWG5I6Io45aiUKYqP1xv0c47+f8vE6TkPscxm4qycfzOWH2I4QfmWcW5PgJ9WOx/ThXU/MAhx/whi6nmQZsI/E3AZYiMulpX13nI/U3l/S3Mf9e4R+gIEH/LzKTS5RPaVVHmuQpFDKuJzGrGtz8ylQCVuRoiqTV+YUKk0RZYwJcbZsdvVvgjo+g6o+IWnYWRhohbbKM1D+m8EeDw3g6ps4bRlaHqhuh204P87kGmjg5itd67nU0y3I08N7fE0oLRdXpjZCKbwNVJkPvjhD3LQfvsWFab1jyFqKMr0CU6GOIKfszohLKfeyGnL9/wvA47PgeSpRPvv2N+bDAGeTzEQewC61QfnAgDSjqWVcfOk+HuiG2J2cZPFUBceAP4u6R+7OjJmIJr4DrV0K9U4NvK1gPwzvD3geQ/zWUQu+NTERR/zpXNtSNyD+vVB+y6sLW1UX83N87fkCh3yNQIeJQrPhRkPUMbByKoq2DTXcrlt8OjtAq8X3wbGHO/PuzYTlUDOI8PLj+LEQVH/TgQ/EIQNQPRsyEDr/2T7z81hF13sEn8NiPRfmw4hCAu9DypB/bIOM3wNz91tHoKYJ/M2gTiQdCFgkKk26dJj7MhQsmQUE1lMeXj5Z+r4TBK4v+eX80TLXh5smwcTMKF7cCr0GJDjCoyH2n/weTQR7S9PovdgAAAABJRU5ErkJggg==" vertex="1" parent="lkZIMJi9Efqeuj9NXLdD-7">
          <mxGeometry x="8.84888888888888" y="81.66666666666669" width="87.85000000000001" height="46.66666666666667" as="geometry" />
        </mxCell>
        <mxCell id="lkZIMJi9Efqeuj9NXLdD-8" value="&lt;font size=&quot;3&quot;&gt;&lt;b&gt;Group DB&lt;/b&gt;&lt;/font&gt;" style="shape=cylinder3;whiteSpace=wrap;html=1;boundedLbl=1;backgroundOutline=1;size=15;fillColor=#808080;strokeColor=#0000FF;strokeWidth=3;" vertex="1" parent="1">
          <mxGeometry x="310" y="290" width="140" height="90" as="geometry" />
        </mxCell>
        <mxCell id="lkZIMJi9Efqeuj9NXLdD-9" value="" style="shape=flexArrow;endArrow=classic;html=1;rounded=0;endWidth=48;endSize=10;width=26;fillColor=#808080;strokeColor=#0000FF;strokeWidth=2;" edge="1" parent="1">
          <mxGeometry width="50" height="50" relative="1" as="geometry">
            <mxPoint x="490" y="340" as="sourcePoint" />
            <mxPoint x="600" y="340" as="targetPoint" />
          </mxGeometry>
        </mxCell>
        <mxCell id="lkZIMJi9Efqeuj9NXLdD-12" value="Text" style="edgeLabel;html=1;align=center;verticalAlign=middle;resizable=0;points=[];" vertex="1" connectable="0" parent="lkZIMJi9Efqeuj9NXLdD-9">
          <mxGeometry x="0.2" y="1" relative="1" as="geometry">
            <mxPoint as="offset" />
          </mxGeometry>
        </mxCell>
        <mxCell id="lkZIMJi9Efqeuj9NXLdD-13" value="&lt;font style=&quot;font-size: 12px;&quot;&gt;&lt;b&gt;Replication&lt;/b&gt;&lt;/font&gt;" style="edgeLabel;html=1;align=center;verticalAlign=middle;resizable=0;points=[];" vertex="1" connectable="0" parent="lkZIMJi9Efqeuj9NXLdD-9">
          <mxGeometry x="0.1111" y="3" relative="1" as="geometry">
            <mxPoint x="-11" y="3" as="offset" />
          </mxGeometry>
        </mxCell>
        <mxCell id="lkZIMJi9Efqeuj9NXLdD-14" value="" style="curved=1;endArrow=classic;html=1;rounded=0;exitX=1;exitY=0.5;exitDx=0;exitDy=0;" edge="1" parent="1" source="lkZIMJi9Efqeuj9NXLdD-6">
          <mxGeometry width="50" height="50" relative="1" as="geometry">
            <mxPoint x="190" y="520" as="sourcePoint" />
            <mxPoint x="300" y="350" as="targetPoint" />
            <Array as="points">
              <mxPoint x="250" y="390" />
              <mxPoint x="240" y="350" />
            </Array>
          </mxGeometry>
        </mxCell>
        <mxCell id="lkZIMJi9Efqeuj9NXLdD-16" value="" style="curved=1;endArrow=classic;html=1;rounded=0;exitX=1;exitY=0.75;exitDx=0;exitDy=0;" edge="1" parent="1" source="lkZIMJi9Efqeuj9NXLdD-2">
          <mxGeometry width="50" height="50" relative="1" as="geometry">
            <mxPoint x="160" y="369" as="sourcePoint" />
            <mxPoint x="300" y="300" as="targetPoint" />
            <Array as="points">
              <mxPoint x="240" y="310" />
              <mxPoint x="240" y="260" />
            </Array>
          </mxGeometry>
        </mxCell>
        <mxCell id="lkZIMJi9Efqeuj9NXLdD-17" value="" style="curved=1;endArrow=classic;html=1;rounded=0;exitX=0.525;exitY=0.838;exitDx=0;exitDy=0;exitPerimeter=0;" edge="1" parent="1" source="lkZIMJi9Efqeuj9NXLdD-1">
          <mxGeometry width="50" height="50" relative="1" as="geometry">
            <mxPoint x="160" y="149" as="sourcePoint" />
            <mxPoint x="370" y="280" as="targetPoint" />
            <Array as="points">
              <mxPoint x="350" y="230" />
              <mxPoint x="330" y="250" />
            </Array>
          </mxGeometry>
        </mxCell>
        <mxCell id="lkZIMJi9Efqeuj9NXLdD-19" value="&lt;font size=&quot;3&quot;&gt;&lt;b&gt;Leader DB&lt;/b&gt;&lt;/font&gt;" style="shape=cylinder3;whiteSpace=wrap;html=1;boundedLbl=1;backgroundOutline=1;size=15;fillColor=#808080;strokeColor=#0000FF;strokeWidth=3;" vertex="1" parent="1">
          <mxGeometry x="630" y="290" width="140" height="90" as="geometry" />
        </mxCell>
        <mxCell id="lkZIMJi9Efqeuj9NXLdD-20" value="" style="group" vertex="1" connectable="0" parent="1">
          <mxGeometry x="370" y="500" width="110" height="140" as="geometry" />
        </mxCell>
        <mxCell id="lkZIMJi9Efqeuj9NXLdD-21" value="&lt;font style=&quot;font-size: 14px;&quot;&gt;&lt;b&gt;Pythia&lt;/b&gt;&lt;/font&gt;" style="shape=actor;whiteSpace=wrap;html=1;fillColor=#dae8fc;strokeColor=#0000FF;strokeWidth=3;" vertex="1" parent="lkZIMJi9Efqeuj9NXLdD-20">
          <mxGeometry width="110.00000000000001" height="140" as="geometry" />
        </mxCell>
        <mxCell id="lkZIMJi9Efqeuj9NXLdD-22" value="" style="shape=image;verticalLabelPosition=bottom;verticalAlign=top;imageAspect=0;aspect=fixed;image=data:image/png,iVBORw0KGgoAAAANSUhEUgAAAIAAAABECAYAAABJRz1pAAAABHNCSVQICAgIfAhkiAAAAAlwSFlzAAAOxAAADsQBlSsOGwAAABl0RVh0U29mdHdhcmUAd3d3Lmlua3NjYXBlLm9yZ5vuPBoAABu/SURBVHic5Z15vE7V/sffz3MOQnRMyRAihRQSqdzmGQ23SLkpMqZLpUlXbJS60qBUFBU36nKrq0H5RSWVVIZSxLkyVeiY4pjO4ezfH5+17f3sZ+/9PIdzNH1er+fF2Ws/a6+91nd9h8/6rvXEKBZYtYAHgUuBksAc4F6wFhTP8/5osMoAQ4BrgNLAl8CdYH1T1E+KFXWFYFUEvgJq+gp2AS2L4yX+WHiiFGyeCzTzFeyB+Hkw6JOifFq8KCszuJ/kwQdJ8phieN4fDJv7kzz4AKWgYBxFPGmLQwAuiCg7HR4uWwzP/CPh4oiyBjCsTlE+rDgEwC6GOv9MSDUmRTpmRVlZBnAtLKoUfsvafLhzHHBsET73j4Sa8HVGePGWfXDfrUC1onpgUQhACaAz8A3QB+b2gb3rk2/LL4A95wCLgE+BsRThi/zOURcYBSyEdxbAvuzkWwqA3GuBHcAS1H9HHcI2JqEk0BP4HngPOMtcPwzKLoO/5sK9uTBoG1y3B6rNQKEhQCXgYWAjchqPOMRt/63gRGAisB6wgIq6XLkbXJ4LA/LByoN+q6HWGuCf5ntVgIeAHPNvhUPZ6FJAD2AtGvhWvvIHgTdM4+qYa28DtwA/AS0899ZEkrwBuBtFCn8GnAG8CaxDA1/eU1Yd9cfniAcAqAFsNvef4rn3aKQ5HEE42IlklwS7VEhhWaAf8INpfIuAe5qaRt6FBt3BZUjtXw98jbSHFw2AKcAaJFyZB/gCvzLurwHWcTAlzI63Rn33PerLw3zlMWA68BiaLN5+ehN4BnEs/v6rjSbSekInkh0Huz7Yx4LtDyXtU8CeDfY+85kNdnNTWM409kfTiJNDXi4TWAB0QoN9macsA1iNBGQakvogtARmAUuB9uyPeYdXAWsiWLlg5YP1EVhh7fgVYDUG6zOwbPP5CYa0N4VxoB0wD1iM/KUwAb8ZsX6jgGG+ssuAj4H/AveFfL8hMinrkCAYAbMvB3sV2Lb5rAS7jfmOXR/sXE+h+RTsgPMdOz0FzdIoDAbeQnZtbcBLWsBopOJyCCY7HJwPzAfmQfV2YK30dK7zyQPr9BRtOgS4vwZYmwPaZ8Olo5HDNp8EgQ5EXdQvJ5t/a/vKnUl0DprpJ0TU1RiN2Wro+gDYecnja+eD3SIG9tuIsw/AFz9Cy3OAAK80AQ2BD4HmwD1IaCzfPTWR+qoF/A3ohWZ8fkidMeBqaPssnJIVcs83YJ2Yom3FDOt5oEtw2Y48eLQ97HsjRSVx1H9TEWXeBrgy4L5hwOHAd+aZZwD7Iuo9FRZPh8YVQ8pnxzT7CWPndkIsFXOXAcwFngVeRna8CfIV/JiGHMTngf9D6v6h6OoHfwWxkyJuqAZWQNh5qGB9Q+RszKwFA9emqGQAcB5iUb8A7kX940cd5BzWRv3o+AsRsHcjxz0Iu+KEz0CkJlKiP/ALMB7oiOxU0OCDHJWeiC3sBdxJStMS2xtdXjJqBhwKbI8os2FvVDlostyKZvSpQBYwM+TeVcjP+itylu8hNakW9fxtcSRJIXilFFLlYSr4ODSI3kGNWvB5F8WwJwMrEAcwjnBCqhYsjhrgz+HenIjyQ4F/hxet+wGssL4Dzcx/oT5cC/RGnn5BxHeeA7oBK4ER5u8w36IUfLI4oq7JceAO83AfcjfDnNaIrVuBVLX3ZeJo8CwU1jQFjiRYdTkoQJqih/l7lPn377776pmy+TD9C8hfkVxVng2znot41iHC/Rmwakfy9YJ18PYkpLInEjxTh6K+m4jIsXbAiykeOA1NvIZI/ZcEbvLdcziK3FZAm9LwS0D/MR83mrArgD0a7GzIWwljdkPFHOSwgWzPWGATriD0Az7Bnb3PItuVCkchUsMhPxqYeo9F6tAJYyz2M1ylX4e2m2DARtl76zVo0gU5m1Grj8WNvkA2lK4JQ3qCNQNuXQWXbIRyL5h7yqGQ7Gf0bvXN9TPQe1Y1f9+JfKN08BCa/aD+24Cc7Cqo33JQyG5Io7vKwZD1MKsAdswBuz/YJaIe8AbwGrJFXvVSBwnCFsRJO6xUOTSI1dN8gVeR2XDwvGn0aqQNynjKrkWh1BaSKc8LzHNDophihUODH+27fhRq62rgEs/1CijLJwdpzv/hciUxYDnB5FoQjkWhoEMIPYb8g03A08AxvvtHouhiepr1cwlyNuYAfXxlMXN9LprJDyFHcGpyNQ9WACtIKC5Ei0JtkRb5znx6++6rhl50JLKVQTgbvfhfI9+oaHEjGuC6IeVTgceRafULbRYihPKQOayL299exGDY8WA1CmEWZyGN+y+kCdeTOKkctEZO+WIK0UcxFPtfgdTLcZ6yHojVykDhyCgUSbzC/pcd2gSsjz2kyEofM3YZsBtJfWdTVxPzIrXcR/E6IpgWIQIkDGcgYbwh3Rc8CFyNWNGGEfecC3yLhOAlX9mFSHPUQKZhAxKUAe4t1plgLff0348wpJ2njtPRGOxCkcARiFhbh/wwB2XRON6BqOUktR+x9kwZ86CpwEDknFRDA321afgvwFbgIiTBz8KRtaH5SIgd76krC2gPGeVh5SjT2DnIkx2GIogN5r7eptO6ms56ErgOaZmwZJO1yFxNQIKwMOK9DgZXIDbzQmSWwrASac7HUXiXY+6vhCKhG9CM/AStmfRFpNgpcPEOqPkmrm8AMrEdocw+yB6GNNAzwGnAbWj2r0fmpz0y3yDTsB5NuoUEOOhR1GQVYBmyN5OB94Ezgc9Q+ObgeaS+RwC1ofPbUDeEGMndCSMvQlxBZaQB6iGbCeKuFyIB6IvIkT5oxt2fVF0ymgEzgAdwI4yiwkVIwNogDzoVbkU2/VFEkTczbVqDHD4HD6D3Hgz0gc5Doa5/scdg424Y3RONx15T9040QUFh5UJkGraZ9p6CGNjWyO9IQKoEw0mImfoPSvhYB5yESx5lIWk/Dkk5YH0LNIqos4YWSwDF0B8BT3nKz0ACch/wCLJfYcxiEE5Cy9QPI9+hKHABEsq2qD/SQRZS9Q1QxHQVom2bI/MHcuJWo1yK5bo0OAdilUPqtKFiaei7x/zdEGm+2kggMHU5AtLdtKMHWl9JQqqMoDHIsdiLhMX5OLgeqTQvGbMroj4bSawDhxn04iRTx8mo0+aR/uCDlpvPQSYjbNWsMDgLDf6VpD/4INP4OjIB49AkeRF38EGmdDH7Bx/QzA3DTuib5/l7KeJo2nquzUamORep/O6ILApEKgGYgwZ/JrLFS4B/eMp74jJ/caAzfBjmGQMr94LVn/2ZL3yA1NZp5u+6KFRqjYilAaQfG3uxBA1cD9wspAPBaWhV7Rq0xF1YjEY+zRjkrd9BYtjoMH8g+/0QfByRJrf8Z5IJpXGIGXRwAfLfyqMJ2gQtIQcinZzA101lwxDV2w05LK2RE/kRco6+VtmXV0Lu0uRq8rbDhnNNXcuQPTwSSWdP05bnkU1cgGZvAxRuHgiWmzZ2QLFxYfMfm6J374pW6g4EC5HGrIv6bRTwgrnWCKnuxeb6UqA6fNsCtqxKrmrvMpg+ETmOXmZxKlpDqI3U/TjkZPYAnkALdHuSqksTlVD48AtuAuKVprEvI2/zM/OiDulRAeI/QLfRJhRcCP0nQlmH7QOFek4q01ikLgci2+8M1P2ocyYdaOM9z8pGTGW6QnAS8ncuS3VjCtRFffe++TuOtOrNyP9ZhDiMUbgJsg0gvgH63QvWm2C9A1fMhJJvmXI/s1gPaefByFQ5q4OZyNy+eDAv8BJyxMbgepog25KPZllHEv2C502D/LgdzSTvINRCKnA3klKHCctAoV0rZP8PdiBqIq0zkejQFzQzf0L2+WCQgczG7STmR/ZEJNA+NGiHe74TR5OgB4nIRP6HN++gItKWG5Ep3Y7e0WFRr0Ta8yfkWKcD+2h9ADkW2abCpshbbYwiggJEBZ/rq+B8REmWC6jcebm+vusZSKPkmpcZjoRqnqcdP0LjqjD0NH0sfy5dOqiGfIMp7CdEhldRRs9+1EeCd13hq7+/NlidYcgNYNVBodh7aHKMQv02z7ThMyQUfmG8A2mLoOisEeJK/JlCldAkshH/72zLexv5AB2ApfBoRbD/AnZrsMv46rAvAnu5my60Lxva/Yyb6l3LNDgHxbCrUZz7Pe5glzV/R21tqotUV33PtQHIyfwGef2jkEaYxX6z85dP4d7dHmZsM1g3RjwnDEcCX0G9j2HQAk9930Ov7qb9/tmXBobcDdaexHS1s3OReu6M4u885E9kIH/pc5Q86+AY1Df1Ih50F/K5/KZsiqlzO5pEz6GxMsmhg+bDrt2edLAtYHcBiIHdFEmmj3woKIA5F8PZbVAK11zT+JGI4ToJORz7kFp7DKmlVHTsbUi9ngkcjyS+JVJZLUx5NnKW/gYnfgBXXRXw0jbELoHBM1I8z4f2TaH+l1DSN/ts4P0nYY5fQ6WA1RH5QwGYtgUWzkPrJYORKd2AZuylSAjORVrhA7RI9kTEw+Lmvtdwia6OyDw7XMK5yAS3BMbCvI+h5b9J1io2cHEcd03Z/6w4ZLyN67F2QKzSUFUMSAuch+zcNebfVBiFTMhtKDQagNixCahTeqM179uAZnDOmQQ7bzGwH0jjeT6ccFfy4JvqOM9v0lKhNBQMDi++9BfkHM9Gg97bfJ5GpnIAeu+/I7P0VGA1LgoQDTwQpaFVw6WbNyEz0w6ZibbALij5MsEmJQYMi4G9k9ANGfYeiHvt7UgUCtZA3i2IdJlhrqcbs9dHHvD7psEOJiCevSPqNMCKaF9BAQx9Nc1nGtx5KZSNyHMc8SXsdDosC3VUBm7+QkncHMrdMLAUZIYxqvvAKoFmWybyL0qjAXL6bxZydlsQvb7gRW8UVq5DtLQjhM2Rn7WI/dyKnUfAIpDT/kzkfIUJgD/TZRMKLbxs1tnoxc4lfQEohzo2C81uJwVqDlr/n+N7ZtB5A0DBNgKXoaOQ0YrwJNh9UOp22OmwlVvR4BXgDlg+6jODzGxC8/L2ON8HEWrfoTUQp64Y7vv7HbMojEET7mQSs4fno7F4xXNtI+F7MDfGkQMRgnFlkENR1zS0G3I0rjI3nGgacj5a7GgfUIkfpdBM745evJ+nrKVpsON8ngiLthCKzDFIAArxOSxCSHPnwJY5qCPnI5r1e6Sut5hPbuJ3Yo+H1/dhFm6uQgbSfEfjCmBXtJTbBZnDdLfG1UTJN6UQ0+egOnImPfsltob4JwCMj6NwJeDYluzdML8xiiPnITW/DUUBvcwLjUfU8Erk7T5B6h2rQ5FXPAnZs3uRj1EWOYejTZ1vAv8H706DfbMD6vkA0caFxMxR8PMvyde374VnTyF6nT8Ag5/GDcM8WDUfllVEWThTkBDlINN2LZqVDyCn+T9oxc6/GygIMURqPYJC6gm4W8y6IEG/wLyHBdU6w6J1AfXMQCE3gH0Y2P8wW8Jm6/9l38Xl/csjIdmJPNU9KAKYRaKD8QBy4MLQiuSkhb8jwqSL+fcdFFkM9LzYndBqKViTwJqsENA6kK3tZYCZkPkF3DUYrDlmS9cIOO1YtOy8heRYOw1YrcAaBEMGw43tUEjn7H46BpmTAsR5fIOb7OKgEiK9ziIaPRGP4Oy8moJ2DceRtroQUem7kLNZC8pVhq5bYM10sCeAfV3A/sAkHG1e4gSkWjah2d0fDaKNIgMvSqC9bUGhYBnEVF3lu56JKN/daJZ0RiHg3aa8jmnHwR4qURY5nbMJJqpAqjUHhWpVQ+5JFzehgchEsf0GxMgtQX23A/kDXrQlkVvxw+EKvHspKiPB7Y/8jI1Io3yHOzknotyBQqM7kjYLd9UqhjrSRkIxnQSbwwkoC6UWWOU9efGPk5jX5xwssQTFrwW49qwlsr9xRDvfcSCN9+AIxGO8TyL1GoR6yElbQfhApIMYUrN3oOjJUbeVkSbdhRzKsSSGueNJ2FthOTPd2T7mD7UrI7W/D2kDh8ldjLTJuchEp3rv0JeYaRra1FzrjnyCaWjPfw8ktbNQRAA0eQZu3uoyYwOWQb2fEVFUCg18NgpZ2qEl21m4ZBPICRuJFpoiU5hTIMu09y2St2OH4Tjk7H5TiO8EoTaakZtwM3WnIO5lMxpMZ+3+NlNeHiqthds+NexiAVifQssnSGQBnUMinM27+Uh4HPRF0cAKZBYOGB1N5ceh+P9n5P07tgak5m4AlkHVL2HQruSdsoPzofEI3PMFTvV890ekObyz/U5kFg5mG3gVFBP/m8ILUVM0S+dycOcVTEaDFEOLWt8hofoXGvQ4Us95wCao3hUGbkzuv/ts6HAVmvEW7kpqTUQRT0Am1FmVzTLtj1xNTceR6oTWoMcjp+JppF7eQyqyFbI9E4CG0NH2kUcGsUw48wbkoTr75TENXo2yaHsg238CIjIKkDk5EFRFWmWJeYd09jl6sQiFtyejhZUDPZ/PyeG/DUU43ZBgP4OWhW2kCbKA6dBsHGQGHLSVARw9GjmR1ZCD2RNNnpvQuHRFYXtFRLPbaKxCkUoAaqGBaGta0ABP6IDCkV6e+wuggn9TggdHVoIpy30Xu+ISSKuQZzwdCcFkQrdeR6IGcvbmonWMFBtMQ/EJEtBzSE7vTgfNUMTTEUVIM5DZA0U823FXVHcC10PzoG1cBuWOghZno4F30uTOQlHZPOTjvIYEbTwyEZ2iGphKALqhQSiFvPGKJLJyLyC15tl/bkdknxTshQ7ejY9Vkd/g3WA5GXXa62hRowep1/C9qIWcJYeejtpomQ7eR8vDHZAjWxjcwv5QjJ0k7nkATSDfZpj4bsJhw1X+/Eh/zt89yDzvRrxCCRKd9MSnRTwsE83OZ9GLv4wkajyuOtyI1OMNiCPvAQsiDipavgcROK3Nhc5ooL1bmB9CXMBNyC5uIH0npjbuLOhH0R1a+R8kiLeQGLtHIQvRtK8idX8NivWv99zzEtIunpyE9REqe8squMerzSohDeXVTvXQhKmFm3LXPazGqJl1OWKTvkYqpwNutkoGbm58DnJibgHKQV4PaNqa5Bh3DZRuAp9uQIzhZSjXfpDKAC0RDzDXc5DafA4xZ68QjTpIuKaiWVDUcNK3HkSM6Gcp7r/Z3HcqCnOfRGp6InIAdyABr4Mc7ErAW/B1a2i8C0r7nFY7FybPg20jUEi3ADGp23GXo+NI+Ecg7787Yl6fQg5jlHZJwrtIPa0iMae8IYoEaiPqdqmp+Bb3lofLgjVc+YDW12A9Cg95NUMJpJ7ykDN5MjIzS1CCKUjLvIsYQf+WMT+ORzZxYMQ9RYV/IJ8iKu8hhkivPmhxxrutfjiJC1hDUAy/D5muo8E6HKyRYP1P28Ksl9ER/CDa3DlbcD2Ju6NvR5MghptGdiMysf59l5FwMnfGkRhbOngBSd4XSD33QmqyMBiH1gH6ovWGxSg89KK2acdkwlVvQ+QJ9wspLw6MRELQLqT8QqQ5s0ncIQwS9G+RaV2PopONpHDWAtAJcQjO0XANSGZMnTSyTmitIQp2DOy6+sQfxN2Q4d3d2grZ2KXmJRwPvRwiNtLdHn64ud9ZODodcfAbkHB5I4meiJBZC7dmacfxfjRFHeA/IOFQ4Dk0eH/Rn1YmDG2uNYFSb6AQ9AXfdzKR5tuJnNMXESfQCTmthcGLaMafgDTCbuSP+VcU71Zbyq+Aib3APgds/3K43QbsFW7O2Kq90CYfd625MdpcsBo3r+0kNGDOoD+N7Hk66Iq7aJSBm/F6OIkpz8cAMaj+Edy0y7BiNliLoG0X8/xDsSM4DK8BedDpVm13c0ibewqg1Vbc6KgMrg3egXwmZ48AyIFeT+Iu7CgcgSZQFfN3VzQpp5J8WGQc+n4Hud6j4jZrQQgAu1nwOXJ7C+C/7Ug8gdJP8FiIYgUJxBrSY80+wU31DsqErch+tqvaJBi0PZkZG2TDGemcSFLMqD1XLF3QOYH9O6H+y0Pq2rvcWwYtiztJtP9E+xnTQR9cx+8oNBGclccTcU9d7Qc5bcAuCDgnsADsi+MoxAugSTNiUOVVZF/rmwb6vcjhaPHhOmTz1pC4Ty0IDdDMno5ClrsR3+AN2TYjATgBLj0F4gELGXHggqCz9A4xumwND6byXkLRVC80a717FXeiiGoMMqFjkRZMJzPoJtzYfzTyJ5wt8YtRxNYWOAM2vEYR5gQGoTmyPU2QR/o3olPDR6DBvgdFAO+g5IYQWGsJTQkDoKzJG/yVYP1E9LH35cDKjSgfjzj7W1BfvIzMXxhaoJC4Ptqq/jDyhUJCvIJ80fCB2B0nKcXJi1jUTlUH8xGVOxrZoGaE57aXQESIc7rmEaRm16Ji13yoVliOv6ixOaJsJzSK2i0NWse/HDmTTuZwFBzmrxyK7521hRDEoo7Ry4kTSbC8EEPqJBVlPAR5o+3QolDQWTWgtO//IXv4IFKBUecAHg9fRZW/BT1/ZQGITQgv2/Cpj/oOwlY06OOQL1SN8BXQwxH38iLSmtNw1xbCMC6qzMkJDIoRv4JHr0P2K5voY9z3oBn9JPKMbyR4Hf0m3L2DzxF+lEtl5CXPgfcmgR30U3M/Qab/fMFfAQ2dE0B82JUNL1ZBjOF5KSp5C/XFQDRgYRPoWkT0NEDkXConuCKUi8HMvICyt3G3ztulwL4b7PfN527f7wY459yvJPicewcjES89g2RiwzkfsD1iyYLqKIOcQmet24Q5j5YGawhYC8BaDNYT6PcJfyuIgXUdWK+A9SoM6QNjS+j6/vf9mP2cQSAqI0LsItRPQWsqnyNzkU30htmyuOH0WJ1jaHcE+3mwx4PdIZ2cwCA4v3SxGgmC33k8DNG5E0hWTfcg1bWG5I6Io45aiUKYqP1xv0c47+f8vE6TkPscxm4qycfzOWH2I4QfmWcW5PgJ9WOx/ThXU/MAhx/whi6nmQZsI/E3AZYiMulpX13nI/U3l/S3Mf9e4R+gIEH/LzKTS5RPaVVHmuQpFDKuJzGrGtz8ylQCVuRoiqTV+YUKk0RZYwJcbZsdvVvgjo+g6o+IWnYWRhohbbKM1D+m8EeDw3g6ps4bRlaHqhuh204P87kGmjg5itd67nU0y3I08N7fE0oLRdXpjZCKbwNVJkPvjhD3LQfvsWFab1jyFqKMr0CU6GOIKfszohLKfeyGnL9/wvA47PgeSpRPvv2N+bDAGeTzEQewC61QfnAgDSjqWVcfOk+HuiG2J2cZPFUBceAP4u6R+7OjJmIJr4DrV0K9U4NvK1gPwzvD3geQ/zWUQu+NTERR/zpXNtSNyD+vVB+y6sLW1UX83N87fkCh3yNQIeJQrPhRkPUMbByKoq2DTXcrlt8OjtAq8X3wbGHO/PuzYTlUDOI8PLj+LEQVH/TgQ/EIQNQPRsyEDr/2T7z81hF13sEn8NiPRfmw4hCAu9DypB/bIOM3wNz91tHoKYJ/M2gTiQdCFgkKk26dJj7MhQsmQUE1lMeXj5Z+r4TBK4v+eX80TLXh5smwcTMKF7cCr0GJDjCoyH2n/weTQR7S9PovdgAAAABJRU5ErkJggg==" vertex="1" parent="lkZIMJi9Efqeuj9NXLdD-20">
          <mxGeometry x="8.84888888888888" y="81.66666666666669" width="87.85000000000001" height="46.66666666666667" as="geometry" />
        </mxCell>
        <mxCell id="lkZIMJi9Efqeuj9NXLdD-23" value="" style="curved=1;endArrow=classic;html=1;rounded=0;exitX=0.214;exitY=0.978;exitDx=0;exitDy=0;exitPerimeter=0;" edge="1" parent="1" source="lkZIMJi9Efqeuj9NXLdD-8">
          <mxGeometry width="50" height="50" relative="1" as="geometry">
            <mxPoint x="193" y="432" as="sourcePoint" />
            <mxPoint x="260" y="490" as="targetPoint" />
            <Array as="points">
              <mxPoint x="320" y="440" />
              <mxPoint x="290" y="430" />
            </Array>
          </mxGeometry>
        </mxCell>
        <mxCell id="lkZIMJi9Efqeuj9NXLdD-24" value="" style="group" vertex="1" connectable="0" parent="1">
          <mxGeometry x="625" y="500" width="110" height="140" as="geometry" />
        </mxCell>
        <mxCell id="lkZIMJi9Efqeuj9NXLdD-25" value="&lt;font style=&quot;font-size: 14px;&quot;&gt;&lt;b&gt;Pythia&lt;/b&gt;&lt;/font&gt;" style="shape=actor;whiteSpace=wrap;html=1;fillColor=#d5e8d4;strokeColor=#0000FF;strokeWidth=3;" vertex="1" parent="lkZIMJi9Efqeuj9NXLdD-24">
          <mxGeometry width="110.00000000000001" height="140" as="geometry" />
        </mxCell>
        <mxCell id="lkZIMJi9Efqeuj9NXLdD-26" value="" style="shape=image;verticalLabelPosition=bottom;verticalAlign=top;imageAspect=0;aspect=fixed;image=data:image/png,iVBORw0KGgoAAAANSUhEUgAAAIAAAABECAYAAABJRz1pAAAABHNCSVQICAgIfAhkiAAAAAlwSFlzAAAOxAAADsQBlSsOGwAAABl0RVh0U29mdHdhcmUAd3d3Lmlua3NjYXBlLm9yZ5vuPBoAABu/SURBVHic5Z15vE7V/sffz3MOQnRMyRAihRQSqdzmGQ23SLkpMqZLpUlXbJS60qBUFBU36nKrq0H5RSWVVIZSxLkyVeiY4pjO4ezfH5+17f3sZ+/9PIdzNH1er+fF2Ws/a6+91nd9h8/6rvXEKBZYtYAHgUuBksAc4F6wFhTP8/5osMoAQ4BrgNLAl8CdYH1T1E+KFXWFYFUEvgJq+gp2AS2L4yX+WHiiFGyeCzTzFeyB+Hkw6JOifFq8KCszuJ/kwQdJ8phieN4fDJv7kzz4AKWgYBxFPGmLQwAuiCg7HR4uWwzP/CPh4oiyBjCsTlE+rDgEwC6GOv9MSDUmRTpmRVlZBnAtLKoUfsvafLhzHHBsET73j4Sa8HVGePGWfXDfrUC1onpgUQhACaAz8A3QB+b2gb3rk2/LL4A95wCLgE+BsRThi/zOURcYBSyEdxbAvuzkWwqA3GuBHcAS1H9HHcI2JqEk0BP4HngPOMtcPwzKLoO/5sK9uTBoG1y3B6rNQKEhQCXgYWAjchqPOMRt/63gRGAisB6wgIq6XLkbXJ4LA/LByoN+q6HWGuCf5ntVgIeAHPNvhUPZ6FJAD2AtGvhWvvIHgTdM4+qYa28DtwA/AS0899ZEkrwBuBtFCn8GnAG8CaxDA1/eU1Yd9cfniAcAqAFsNvef4rn3aKQ5HEE42IlklwS7VEhhWaAf8INpfIuAe5qaRt6FBt3BZUjtXw98jbSHFw2AKcAaJFyZB/gCvzLurwHWcTAlzI63Rn33PerLw3zlMWA68BiaLN5+ehN4BnEs/v6rjSbSekInkh0Huz7Yx4LtDyXtU8CeDfY+85kNdnNTWM409kfTiJNDXi4TWAB0QoN9macsA1iNBGQakvogtARmAUuB9uyPeYdXAWsiWLlg5YP1EVhh7fgVYDUG6zOwbPP5CYa0N4VxoB0wD1iM/KUwAb8ZsX6jgGG+ssuAj4H/AveFfL8hMinrkCAYAbMvB3sV2Lb5rAS7jfmOXR/sXE+h+RTsgPMdOz0FzdIoDAbeQnZtbcBLWsBopOJyCCY7HJwPzAfmQfV2YK30dK7zyQPr9BRtOgS4vwZYmwPaZ8Olo5HDNp8EgQ5EXdQvJ5t/a/vKnUl0DprpJ0TU1RiN2Wro+gDYecnja+eD3SIG9tuIsw/AFz9Cy3OAAK80AQ2BD4HmwD1IaCzfPTWR+qoF/A3ohWZ8fkidMeBqaPssnJIVcs83YJ2Yom3FDOt5oEtw2Y48eLQ97HsjRSVx1H9TEWXeBrgy4L5hwOHAd+aZZwD7Iuo9FRZPh8YVQ8pnxzT7CWPndkIsFXOXAcwFngVeRna8CfIV/JiGHMTngf9D6v6h6OoHfwWxkyJuqAZWQNh5qGB9Q+RszKwFA9emqGQAcB5iUb8A7kX940cd5BzWRv3o+AsRsHcjxz0Iu+KEz0CkJlKiP/ALMB7oiOxU0OCDHJWeiC3sBdxJStMS2xtdXjJqBhwKbI8os2FvVDlostyKZvSpQBYwM+TeVcjP+itylu8hNakW9fxtcSRJIXilFFLlYSr4ODSI3kGNWvB5F8WwJwMrEAcwjnBCqhYsjhrgz+HenIjyQ4F/hxet+wGssL4Dzcx/oT5cC/RGnn5BxHeeA7oBK4ER5u8w36IUfLI4oq7JceAO83AfcjfDnNaIrVuBVLX3ZeJo8CwU1jQFjiRYdTkoQJqih/l7lPn377776pmy+TD9C8hfkVxVng2znot41iHC/Rmwakfy9YJ18PYkpLInEjxTh6K+m4jIsXbAiykeOA1NvIZI/ZcEbvLdcziK3FZAm9LwS0D/MR83mrArgD0a7GzIWwljdkPFHOSwgWzPWGATriD0Az7Bnb3PItuVCkchUsMhPxqYeo9F6tAJYyz2M1ylX4e2m2DARtl76zVo0gU5m1Grj8WNvkA2lK4JQ3qCNQNuXQWXbIRyL5h7yqGQ7Gf0bvXN9TPQe1Y1f9+JfKN08BCa/aD+24Cc7Cqo33JQyG5Io7vKwZD1MKsAdswBuz/YJaIe8AbwGrJFXvVSBwnCFsRJO6xUOTSI1dN8gVeR2XDwvGn0aqQNynjKrkWh1BaSKc8LzHNDophihUODH+27fhRq62rgEs/1CijLJwdpzv/hciUxYDnB5FoQjkWhoEMIPYb8g03A08AxvvtHouhiepr1cwlyNuYAfXxlMXN9LprJDyFHcGpyNQ9WACtIKC5Ei0JtkRb5znx6++6rhl50JLKVQTgbvfhfI9+oaHEjGuC6IeVTgceRafULbRYihPKQOayL299exGDY8WA1CmEWZyGN+y+kCdeTOKkctEZO+WIK0UcxFPtfgdTLcZ6yHojVykDhyCgUSbzC/pcd2gSsjz2kyEofM3YZsBtJfWdTVxPzIrXcR/E6IpgWIQIkDGcgYbwh3Rc8CFyNWNGGEfecC3yLhOAlX9mFSHPUQKZhAxKUAe4t1plgLff0348wpJ2njtPRGOxCkcARiFhbh/wwB2XRON6BqOUktR+x9kwZ86CpwEDknFRDA321afgvwFbgIiTBz8KRtaH5SIgd76krC2gPGeVh5SjT2DnIkx2GIogN5r7eptO6ms56ErgOaZmwZJO1yFxNQIKwMOK9DgZXIDbzQmSWwrASac7HUXiXY+6vhCKhG9CM/AStmfRFpNgpcPEOqPkmrm8AMrEdocw+yB6GNNAzwGnAbWj2r0fmpz0y3yDTsB5NuoUEOOhR1GQVYBmyN5OB94Ezgc9Q+ObgeaS+RwC1ofPbUDeEGMndCSMvQlxBZaQB6iGbCeKuFyIB6IvIkT5oxt2fVF0ymgEzgAdwI4yiwkVIwNogDzoVbkU2/VFEkTczbVqDHD4HD6D3Hgz0gc5Doa5/scdg424Y3RONx15T9040QUFh5UJkGraZ9p6CGNjWyO9IQKoEw0mImfoPSvhYB5yESx5lIWk/Dkk5YH0LNIqos4YWSwDF0B8BT3nKz0ACch/wCLJfYcxiEE5Cy9QPI9+hKHABEsq2qD/SQRZS9Q1QxHQVom2bI/MHcuJWo1yK5bo0OAdilUPqtKFiaei7x/zdEGm+2kggMHU5AtLdtKMHWl9JQqqMoDHIsdiLhMX5OLgeqTQvGbMroj4bSawDhxn04iRTx8mo0+aR/uCDlpvPQSYjbNWsMDgLDf6VpD/4INP4OjIB49AkeRF38EGmdDH7Bx/QzA3DTuib5/l7KeJo2nquzUamORep/O6ILApEKgGYgwZ/JrLFS4B/eMp74jJ/caAzfBjmGQMr94LVn/2ZL3yA1NZp5u+6KFRqjYilAaQfG3uxBA1cD9wspAPBaWhV7Rq0xF1YjEY+zRjkrd9BYtjoMH8g+/0QfByRJrf8Z5IJpXGIGXRwAfLfyqMJ2gQtIQcinZzA101lwxDV2w05LK2RE/kRco6+VtmXV0Lu0uRq8rbDhnNNXcuQPTwSSWdP05bnkU1cgGZvAxRuHgiWmzZ2QLFxYfMfm6J374pW6g4EC5HGrIv6bRTwgrnWCKnuxeb6UqA6fNsCtqxKrmrvMpg+ETmOXmZxKlpDqI3U/TjkZPYAnkALdHuSqksTlVD48AtuAuKVprEvI2/zM/OiDulRAeI/QLfRJhRcCP0nQlmH7QOFek4q01ikLgci2+8M1P2ocyYdaOM9z8pGTGW6QnAS8ncuS3VjCtRFffe++TuOtOrNyP9ZhDiMUbgJsg0gvgH63QvWm2C9A1fMhJJvmXI/s1gPaefByFQ5q4OZyNy+eDAv8BJyxMbgepog25KPZllHEv2C502D/LgdzSTvINRCKnA3klKHCctAoV0rZP8PdiBqIq0zkejQFzQzf0L2+WCQgczG7STmR/ZEJNA+NGiHe74TR5OgB4nIRP6HN++gItKWG5Ep3Y7e0WFRr0Ta8yfkWKcD+2h9ADkW2abCpshbbYwiggJEBZ/rq+B8REmWC6jcebm+vusZSKPkmpcZjoRqnqcdP0LjqjD0NH0sfy5dOqiGfIMp7CdEhldRRs9+1EeCd13hq7+/NlidYcgNYNVBodh7aHKMQv02z7ThMyQUfmG8A2mLoOisEeJK/JlCldAkshH/72zLexv5AB2ApfBoRbD/AnZrsMv46rAvAnu5my60Lxva/Yyb6l3LNDgHxbCrUZz7Pe5glzV/R21tqotUV33PtQHIyfwGef2jkEaYxX6z85dP4d7dHmZsM1g3RjwnDEcCX0G9j2HQAk9930Ov7qb9/tmXBobcDdaexHS1s3OReu6M4u885E9kIH/pc5Q86+AY1Df1Ih50F/K5/KZsiqlzO5pEz6GxMsmhg+bDrt2edLAtYHcBiIHdFEmmj3woKIA5F8PZbVAK11zT+JGI4ToJORz7kFp7DKmlVHTsbUi9ngkcjyS+JVJZLUx5NnKW/gYnfgBXXRXw0jbELoHBM1I8z4f2TaH+l1DSN/ts4P0nYY5fQ6WA1RH5QwGYtgUWzkPrJYORKd2AZuylSAjORVrhA7RI9kTEw+Lmvtdwia6OyDw7XMK5yAS3BMbCvI+h5b9J1io2cHEcd03Z/6w4ZLyN67F2QKzSUFUMSAuch+zcNebfVBiFTMhtKDQagNixCahTeqM179uAZnDOmQQ7bzGwH0jjeT6ccFfy4JvqOM9v0lKhNBQMDi++9BfkHM9Gg97bfJ5GpnIAeu+/I7P0VGA1LgoQDTwQpaFVw6WbNyEz0w6ZibbALij5MsEmJQYMi4G9k9ANGfYeiHvt7UgUCtZA3i2IdJlhrqcbs9dHHvD7psEOJiCevSPqNMCKaF9BAQx9Nc1nGtx5KZSNyHMc8SXsdDosC3VUBm7+QkncHMrdMLAUZIYxqvvAKoFmWybyL0qjAXL6bxZydlsQvb7gRW8UVq5DtLQjhM2Rn7WI/dyKnUfAIpDT/kzkfIUJgD/TZRMKLbxs1tnoxc4lfQEohzo2C81uJwVqDlr/n+N7ZtB5A0DBNgKXoaOQ0YrwJNh9UOp22OmwlVvR4BXgDlg+6jODzGxC8/L2ON8HEWrfoTUQp64Y7vv7HbMojEET7mQSs4fno7F4xXNtI+F7MDfGkQMRgnFlkENR1zS0G3I0rjI3nGgacj5a7GgfUIkfpdBM745evJ+nrKVpsON8ngiLthCKzDFIAArxOSxCSHPnwJY5qCPnI5r1e6Sut5hPbuJ3Yo+H1/dhFm6uQgbSfEfjCmBXtJTbBZnDdLfG1UTJN6UQ0+egOnImPfsltob4JwCMj6NwJeDYluzdML8xiiPnITW/DUUBvcwLjUfU8Erk7T5B6h2rQ5FXPAnZs3uRj1EWOYejTZ1vAv8H706DfbMD6vkA0caFxMxR8PMvyde374VnTyF6nT8Ag5/GDcM8WDUfllVEWThTkBDlINN2LZqVDyCn+T9oxc6/GygIMURqPYJC6gm4W8y6IEG/wLyHBdU6w6J1AfXMQCE3gH0Y2P8wW8Jm6/9l38Xl/csjIdmJPNU9KAKYRaKD8QBy4MLQiuSkhb8jwqSL+fcdFFkM9LzYndBqKViTwJqsENA6kK3tZYCZkPkF3DUYrDlmS9cIOO1YtOy8heRYOw1YrcAaBEMGw43tUEjn7H46BpmTAsR5fIOb7OKgEiK9ziIaPRGP4Oy8moJ2DceRtroQUem7kLNZC8pVhq5bYM10sCeAfV3A/sAkHG1e4gSkWjah2d0fDaKNIgMvSqC9bUGhYBnEVF3lu56JKN/daJZ0RiHg3aa8jmnHwR4qURY5nbMJJqpAqjUHhWpVQ+5JFzehgchEsf0GxMgtQX23A/kDXrQlkVvxw+EKvHspKiPB7Y/8jI1Io3yHOzknotyBQqM7kjYLd9UqhjrSRkIxnQSbwwkoC6UWWOU9efGPk5jX5xwssQTFrwW49qwlsr9xRDvfcSCN9+AIxGO8TyL1GoR6yElbQfhApIMYUrN3oOjJUbeVkSbdhRzKsSSGueNJ2FthOTPd2T7mD7UrI7W/D2kDh8ldjLTJuchEp3rv0JeYaRra1FzrjnyCaWjPfw8ktbNQRAA0eQZu3uoyYwOWQb2fEVFUCg18NgpZ2qEl21m4ZBPICRuJFpoiU5hTIMu09y2St2OH4Tjk7H5TiO8EoTaakZtwM3WnIO5lMxpMZ+3+NlNeHiqthds+NexiAVifQssnSGQBnUMinM27+Uh4HPRF0cAKZBYOGB1N5ceh+P9n5P07tgak5m4AlkHVL2HQruSdsoPzofEI3PMFTvV890ekObyz/U5kFg5mG3gVFBP/m8ILUVM0S+dycOcVTEaDFEOLWt8hofoXGvQ4Us95wCao3hUGbkzuv/ts6HAVmvEW7kpqTUQRT0Am1FmVzTLtj1xNTceR6oTWoMcjp+JppF7eQyqyFbI9E4CG0NH2kUcGsUw48wbkoTr75TENXo2yaHsg238CIjIKkDk5EFRFWmWJeYd09jl6sQiFtyejhZUDPZ/PyeG/DUU43ZBgP4OWhW2kCbKA6dBsHGQGHLSVARw9GjmR1ZCD2RNNnpvQuHRFYXtFRLPbaKxCkUoAaqGBaGta0ABP6IDCkV6e+wuggn9TggdHVoIpy30Xu+ISSKuQZzwdCcFkQrdeR6IGcvbmonWMFBtMQ/EJEtBzSE7vTgfNUMTTEUVIM5DZA0U823FXVHcC10PzoG1cBuWOghZno4F30uTOQlHZPOTjvIYEbTwyEZ2iGphKALqhQSiFvPGKJLJyLyC15tl/bkdknxTshQ7ejY9Vkd/g3WA5GXXa62hRowep1/C9qIWcJYeejtpomQ7eR8vDHZAjWxjcwv5QjJ0k7nkATSDfZpj4bsJhw1X+/Eh/zt89yDzvRrxCCRKd9MSnRTwsE83OZ9GLv4wkajyuOtyI1OMNiCPvAQsiDipavgcROK3Nhc5ooL1bmB9CXMBNyC5uIH0npjbuLOhH0R1a+R8kiLeQGLtHIQvRtK8idX8NivWv99zzEtIunpyE9REqe8squMerzSohDeXVTvXQhKmFm3LXPazGqJl1OWKTvkYqpwNutkoGbm58DnJibgHKQV4PaNqa5Bh3DZRuAp9uQIzhZSjXfpDKAC0RDzDXc5DafA4xZ68QjTpIuKaiWVDUcNK3HkSM6Gcp7r/Z3HcqCnOfRGp6InIAdyABr4Mc7ErAW/B1a2i8C0r7nFY7FybPg20jUEi3ADGp23GXo+NI+Ecg7787Yl6fQg5jlHZJwrtIPa0iMae8IYoEaiPqdqmp+Bb3lofLgjVc+YDW12A9Cg95NUMJpJ7ykDN5MjIzS1CCKUjLvIsYQf+WMT+ORzZxYMQ9RYV/IJ8iKu8hhkivPmhxxrutfjiJC1hDUAy/D5muo8E6HKyRYP1P28Ksl9ER/CDa3DlbcD2Ju6NvR5MghptGdiMysf59l5FwMnfGkRhbOngBSd4XSD33QmqyMBiH1gH6ovWGxSg89KK2acdkwlVvQ+QJ9wspLw6MRELQLqT8QqQ5s0ncIQwS9G+RaV2PopONpHDWAtAJcQjO0XANSGZMnTSyTmitIQp2DOy6+sQfxN2Q4d3d2grZ2KXmJRwPvRwiNtLdHn64ud9ZODodcfAbkHB5I4meiJBZC7dmacfxfjRFHeA/IOFQ4Dk0eH/Rn1YmDG2uNYFSb6AQ9AXfdzKR5tuJnNMXESfQCTmthcGLaMafgDTCbuSP+VcU71Zbyq+Aib3APgds/3K43QbsFW7O2Kq90CYfd625MdpcsBo3r+0kNGDOoD+N7Hk66Iq7aJSBm/F6OIkpz8cAMaj+Edy0y7BiNliLoG0X8/xDsSM4DK8BedDpVm13c0ibewqg1Vbc6KgMrg3egXwmZ48AyIFeT+Iu7CgcgSZQFfN3VzQpp5J8WGQc+n4Hud6j4jZrQQgAu1nwOXJ7C+C/7Ug8gdJP8FiIYgUJxBrSY80+wU31DsqErch+tqvaJBi0PZkZG2TDGemcSFLMqD1XLF3QOYH9O6H+y0Pq2rvcWwYtiztJtP9E+xnTQR9cx+8oNBGclccTcU9d7Qc5bcAuCDgnsADsi+MoxAugSTNiUOVVZF/rmwb6vcjhaPHhOmTz1pC4Ty0IDdDMno5ClrsR3+AN2TYjATgBLj0F4gELGXHggqCz9A4xumwND6byXkLRVC80a717FXeiiGoMMqFjkRZMJzPoJtzYfzTyJ5wt8YtRxNYWOAM2vEYR5gQGoTmyPU2QR/o3olPDR6DBvgdFAO+g5IYQWGsJTQkDoKzJG/yVYP1E9LH35cDKjSgfjzj7W1BfvIzMXxhaoJC4Ptqq/jDyhUJCvIJ80fCB2B0nKcXJi1jUTlUH8xGVOxrZoGaE57aXQESIc7rmEaRm16Ji13yoVliOv6ixOaJsJzSK2i0NWse/HDmTTuZwFBzmrxyK7521hRDEoo7Ry4kTSbC8EEPqJBVlPAR5o+3QolDQWTWgtO//IXv4IFKBUecAHg9fRZW/BT1/ZQGITQgv2/Cpj/oOwlY06OOQL1SN8BXQwxH38iLSmtNw1xbCMC6qzMkJDIoRv4JHr0P2K5voY9z3oBn9JPKMbyR4Hf0m3L2DzxF+lEtl5CXPgfcmgR30U3M/Qab/fMFfAQ2dE0B82JUNL1ZBjOF5KSp5C/XFQDRgYRPoWkT0NEDkXConuCKUi8HMvICyt3G3ztulwL4b7PfN527f7wY459yvJPicewcjES89g2RiwzkfsD1iyYLqKIOcQmet24Q5j5YGawhYC8BaDNYT6PcJfyuIgXUdWK+A9SoM6QNjS+j6/vf9mP2cQSAqI0LsItRPQWsqnyNzkU30htmyuOH0WJ1jaHcE+3mwx4PdIZ2cwCA4v3SxGgmC33k8DNG5E0hWTfcg1bWG5I6Io45aiUKYqP1xv0c47+f8vE6TkPscxm4qycfzOWH2I4QfmWcW5PgJ9WOx/ThXU/MAhx/whi6nmQZsI/E3AZYiMulpX13nI/U3l/S3Mf9e4R+gIEH/LzKTS5RPaVVHmuQpFDKuJzGrGtz8ylQCVuRoiqTV+YUKk0RZYwJcbZsdvVvgjo+g6o+IWnYWRhohbbKM1D+m8EeDw3g6ps4bRlaHqhuh204P87kGmjg5itd67nU0y3I08N7fE0oLRdXpjZCKbwNVJkPvjhD3LQfvsWFab1jyFqKMr0CU6GOIKfszohLKfeyGnL9/wvA47PgeSpRPvv2N+bDAGeTzEQewC61QfnAgDSjqWVcfOk+HuiG2J2cZPFUBceAP4u6R+7OjJmIJr4DrV0K9U4NvK1gPwzvD3geQ/zWUQu+NTERR/zpXNtSNyD+vVB+y6sLW1UX83N87fkCh3yNQIeJQrPhRkPUMbByKoq2DTXcrlt8OjtAq8X3wbGHO/PuzYTlUDOI8PLj+LEQVH/TgQ/EIQNQPRsyEDr/2T7z81hF13sEn8NiPRfmw4hCAu9DypB/bIOM3wNz91tHoKYJ/M2gTiQdCFgkKk26dJj7MhQsmQUE1lMeXj5Z+r4TBK4v+eX80TLXh5smwcTMKF7cCr0GJDjCoyH2n/weTQR7S9PovdgAAAABJRU5ErkJggg==" vertex="1" parent="lkZIMJi9Efqeuj9NXLdD-24">
          <mxGeometry x="8.84888888888888" y="81.66666666666669" width="87.85000000000001" height="46.66666666666667" as="geometry" />
        </mxCell>
        <mxCell id="lkZIMJi9Efqeuj9NXLdD-27" value="" style="curved=1;endArrow=classic;html=1;rounded=0;exitX=0.145;exitY=1;exitDx=0;exitDy=-4.35;exitPerimeter=0;" edge="1" parent="1">
          <mxGeometry width="50" height="50" relative="1" as="geometry">
            <mxPoint x="660" y="380" as="sourcePoint" />
            <mxPoint x="680" y="490" as="targetPoint" />
            <Array as="points">
              <mxPoint x="650" y="444" />
              <mxPoint x="680" y="434" />
            </Array>
          </mxGeometry>
        </mxCell>
        <mxCell id="lkZIMJi9Efqeuj9NXLdD-33" value="" style="group" vertex="1" connectable="0" parent="1">
          <mxGeometry x="130" y="500" width="210" height="90" as="geometry" />
        </mxCell>
        <mxCell id="lkZIMJi9Efqeuj9NXLdD-28" value="" style="ellipse;html=1;strokeWidth=4;fillColor=#f5f5f5;strokeColor=#666666;shadow=0;fontSize=10;fontColor=#333333;align=center;fontStyle=0;whiteSpace=wrap;spacing=10;" vertex="1" parent="lkZIMJi9Efqeuj9NXLdD-33">
          <mxGeometry width="210" height="90" as="geometry" />
        </mxCell>
        <mxCell id="lkZIMJi9Efqeuj9NXLdD-29" value="" style="ellipse;html=1;strokeWidth=4;fillColor=#dae8fc;strokeColor=#0000FF;shadow=0;fontSize=10;align=center;fontStyle=0;whiteSpace=wrap;spacing=10;" vertex="1" parent="lkZIMJi9Efqeuj9NXLdD-33">
          <mxGeometry x="30" y="20" width="150" height="70" as="geometry" />
        </mxCell>
        <mxCell id="lkZIMJi9Efqeuj9NXLdD-30" value="" style="ellipse;html=1;strokeWidth=4;fillColor=#f5f5f5;strokeColor=#666666;shadow=0;fontSize=10;fontColor=#333333;align=center;fontStyle=0;whiteSpace=wrap;spacing=10;" vertex="1" parent="lkZIMJi9Efqeuj9NXLdD-33">
          <mxGeometry x="60" y="40" width="90" height="50" as="geometry" />
        </mxCell>
        <mxCell id="lkZIMJi9Efqeuj9NXLdD-31" value="" style="ellipse;html=1;strokeWidth=4;fillColor=#dae8fc;strokeColor=#0000FF;shadow=0;fontSize=10;align=center;fontStyle=0;whiteSpace=wrap;spacing=10;" vertex="1" parent="lkZIMJi9Efqeuj9NXLdD-33">
          <mxGeometry x="90" y="60" width="30" height="30" as="geometry" />
        </mxCell>
        <mxCell id="lkZIMJi9Efqeuj9NXLdD-32" value="" style="shape=image;verticalLabelPosition=bottom;verticalAlign=top;imageAspect=0;aspect=fixed;image=data:image/png,iVBORw0KGgoAAAANSUhEUgAAAFgAAABECAYAAAAFgfLUAAAABHNCSVQICAgIfAhkiAAAAAlwSFlzAAAOxAAADsQBlSsOGwAAABl0RVh0U29mdHdhcmUAd3d3Lmlua3NjYXBlLm9yZ5vuPBoAABR8SURBVHiczZx5lBRFtsZ/1QsItCK77ALiggqoMICiIsuowFMBQUYFQRQUR9zQRtZiE3E8KiM+AVEZhIFBRUfcQWRUVgFRQVxYZJOdZm/spsn3xxdJZmdlZlV3VzvvO6dOd2ZEZUTeiLj3u/dGVIRiwdiqkPsM0AY4BSyAtGEwdFvxtFdQjK4HeS8A1wEngfeBgRDdleyWIsl+IERrAN8AFT0FO6FEIxi8N/ltFgTR84FVQIanoFj6l5LMhxlMIFa4AFUhZ3wxtFdQTCRWuKD+PZ3sxpIt4AhwY0h5+yS3V0BE05BaCMKfk91icczgsGemFkN7BUADK06FeOUFRrIFbAGfBRcfX5bk9gqIbq1h69Hg8nVpQOtktlgcM/ghyMuOvX3yOEy+EpgDNCiGdsPQElgITIAlYyHveGyVvN2weCjwErAY+J8/tIcFQFmouAMGLoPoCRiWB7edgku6IePyELAdmAc0Kea+XAUsADYBfZGKqgDl9sBteTAiC4YdgJstyFhlylOQcL8xn64UC9sqPN4AXnBdd0Jc8xegjLlXEr3wNmA+0CzJfbgSDeBm006aq+yfwFFghuvet8BxYKDrni3oVcAa/p8I+iZgA/lpUBqasSuAFz31SwA9kfC/Qo5JUdCCYMEC3Az8CGxEg2Djr8ASYC9wkec7ESTor4HvTH8DVKtVEqwSRXmBMFQEdgBX+5SNAV4FtuBPhdJRx39Cgvbov2gDiC6AaC5EsyH6Joyp7qrQHAn2V/wFa/fvN2AYmrFulAUOAKOQoINsU1s0Ub43/TWsyLoIrIVg5ZnPZ7qX3Cn/L/SCmT5ltYCVwN3A34FGwBGfeilAF2AkcBAYB9EtwDKglKfubnirO6ztj1TMc8Ak4PeA/s1BurgeYjqTPOWvodndAXiL2NXmRls0aTKg0z9g7ggc9WfjGHBZyDMKhNuAH4AzQup8DNwBTCH25byw9d9KuPcoRC3/T5ejyGiGtQtwC7AeqAPsB87yqdMcqbcLkKqoF+eZAC3hi31gWQGfecmYwVWQEbgJ6akgdAIeRoL7FugHfBr+6OgZyPgE9NPaCiNrx+lfZdO/W5B6qgb0D6i7BngUuBy4AWhHXOfDOoK/6w1wNBk8eDIwlXDhgnTkeUB14B7gFaT7QlA1D0XjAhA5mUD//heYhtjAvYSvnilIhz8PnGn6GQ+5IWU5RRVwD+BcYHQCdU+iF70X6cD30YuEoN/VsO1gcLn1YZw2/4KcmlFAR2ArYgJBmIlmeQXgLqRna4bUrwmfhUXf3ovTv1BUA3YDVxTgO3WAPUhnlkb07Bafem2RNd8A5w2G4Qdj9e9j2VBqPcG0qRJiDU3N9cfA7Qn08VXgcfP/UOADnzoVgaeBvVBvAuTu8NG/W8DyiyomjA+BIYX4nvtFr0LORnkcw/Y10tE2DYpA+ZXQNQeiv0HmYWhvQbnBaCCWI9rkdQTeQjMXoC6aDPGMIYiRbDDPSkPsp6cpKw9EkRGcDJyj21XfhRctOLQTrJ/B+jtYZycsER/ci3RaeiG+2xn4j+v6BRQn+BFx4PbkF9R9wC5E3QDOR3r5IHChuWfz0++QoO9Eg2ST/vFoxiWKNThOz2VocMag1TcZ2RH3+xxD7MRLJQuF2qahSwr5/XS0dBsja74ZceJRPnVrA/uQMN0vtQD4nNhBbosEm4v4eAS55buQgfUgWg2equDTbn/E60sjGngEOVHeZ1Qw9xcSYE8KStMiaInPB54NrhataxpsjYzbB5D+GAzZjSjN2yjw/SHwFFqKbyIHZJ+rrY/Q7EhBNM9GF+BBROEWA2NdZXOBE4jPpgJfIk7rCvaPbAPWJByBLQf6Q3S1ua6EnKZDaFWNAmYhYz7H1dYbyAPsAlwPrPNKoqAs4gFEX0Ks/+j6OLw4AzgbuANyvoNKT6M4wFE0K7ujpb0EBWEmuh7UF73oucRSq38j4bwADMAxtHchfdsLReqGAb3NPeN+R1uC9Sn5Z2MzYCE8Uhfp22Wmf28C3YC1QB/khVY232mPbMhytApjhAsFE3Bd0+FeQF5wtbyJaBA8iFSG628FrkEjvhrpLxtDkdrpitTBKOBvaIDmex52EnHvjsjiT0cM5RnkjucgB2EL0o2ZaPYthhMz8X/vsrB9DaKe3U3fOrrqrkAz9nnkCU5Ck+B2xOl9kaiKSEGG6U00igGYkwo/nMA/2AKww2SdMS8wAGjlKv8T8C4K+sxHg7oBfwNVA62U2oi/tkQJVzcnf1ltMkbvUP5uGBAoDNGtsTVcN75BA7jAXJcybR5E+n+cqVMT8EkyJD6DH0GzZmK8ioS7lu6yeYgRXOi6twJ1uBGy1p1REMYP24Ev0Az6BBmcha7ys9DynmquT0H0DfMeAUjf77lhe3Y2spFaaooGvQ9Sbb7ChcQEfBFaYncT6raSAd2ehI0hAt61ESfxmQu8jiifjZpoFu9DRuVTxFiCMAnFDqKIxk3FoUp3oplnbyZJhQG3wYagaBuQtchzYyZiJlXMdQaa0V+ildKHEPUA8QWchtzbIUiR+6EEGuWfgIaw+0ZkfT04uRdmpiCDYTsFU5HOK2kqTUE6rrt5sRmxz8mHBcgQTkFCXoPDKO5DKsIOmK8C+sHq3pB7IPZRh36FiV3Rympsbh5GjKeXuR4HLEIhzauRk/R9nD6GYgjShX66OgUJaqOp09gpGlMbom9BNAui+6DrIajVwxS2xckOdMXx7O5Bhi8d6dNc4vvyfRBVe91cV0Cq40kUPm2HPLHlOEH8alBqNwyYAdGV8MRauDYL6lVGMd2HkN6eh6JqTZEduBYJ1PbQ5iEj6mPQE0ND5MHU8NxPQfFf2xD9KYFntUAvXt5cRxCTWGc+a5EquNSUz0D5sa8R9fJDLdO/qxFTsJ/dEen6TWgQb8aZIBHEvUd4njUB6VIbZZDq+Q253OuBLEQ9QTLZh1jFy+Gvng9WWX1IR7PJ+3IdkBFaSsH3DzxvOuRGKo5u/xUZtwqIvJdHkbDdnI5oja2qDxFk2AaZ50xDAmmBDN8pNPheFdgXDZqX5ZRCA32Hz/2HkLOThWY0aIAmonDrVk4zIasWWH7xaasxWMucSNCmbXDNIleFa5BH8x3OKBYUpdGs7+y53xvYiUKYO9AAznWVD4H6KyD6vRNJe3w71F2LYzB7IOflV0Ql55j/3fm/umiVeJOaNhqjwazlud/M9O+Y6d/75rqhKe8AbbZD3k+uSNp6sFqacqsBWNmx4bZT2TD6Jldn7X0FRYFXVVRDVv4G9PIVzN99pt06MPhyGHYqNlw5Ihdu6YKcjJ3muR2RargCrbBtQDk0kxehjEoYMtEKsN+zJI5RfgXZpOcQLfsKaKXJmZvnE67MBatJxLiN7fzbW3gC2gwiPJlYUDyH3M07kT5ciijPJ0hIVyAj9wAwEPrnQOVq/o/6NQemDUcJyjuRAHbh7LOwd1KuRerN3q8chBTEpT9EXuEYNOO7IGM3CxnPeUgeQ+HrytAkKDPzeQSsY2j5+uEoRAptJQNwBqJMC5Ev3wwxhlvR8u6PYzgqw7AdkBrkGWZD1O57BprJD6OgOchYrUGzuAlaifFQC+npQYiWNcbh0qtQ4Kg6UhnpkHsU0oL2QmSnochTkIADPZQi4ASaaXZEzc5pLTd/3RsE90BqFuK6fnBv5KuAjJI7xZODQo1neuqGYStyJv6B7IN71/siZICPmetcSDuIEwDy4kgK+Q2KB8f80iXJwD1IoP1c93oiIbgteQtYFzLI27/HiQffi9TMPTgsYRgyTG+gTX2JohaaXC5uf3rPRnNOZzJIga+/CXnObMAqD9aGWCW95wCU24d87jjZ3wKhF1q2GYgadTGd34zUxB40s81OnbKZ8PiuWCM3eBOU/kh1eBTNtPNRUKoz0uU7kTBKIo+rewL9uwixiUvMs+0N5e3R6pqCHJmuwHootwz2b/Exct+CZatX60ywngFrDWRthAlZMLYKGsnJpsFMglVJoqhK/kRpcySEXmhGt0QC3oP4Z0ngAkjfBw+/ANGv9LlxI5Qebp7RAunGbPOdnkjI640QbDRBg3AOwUg1/bDjIzYTqQC8g5jUCKR6XFu8ykyHV5aCtch8ntQ+tWBMI//WoQtx6FAmiSUP/fAOsV7UsyjC9QOiWJOQrgO98BLgfs93aqKBamSuPwceQ9RuN9KRs33aH0m4+/04saGBZ1HM4ygS9lfAzzgcu73pd9DmE1+UxX+j3sXmJbYQvMkuCHch1eC2uC3RsrPQ0kvDydldgAYzKBbSE+XfGiN6Z/elD6Jix4hddbaH2luX48rpA0i97EEZFBtl0MDlmDbssEA/5EKfjYxioXbFt0V60W8fVzPybxP1OCCj60P0A4geh+ghGPwelN+HoxraIsGuQwH2RcgY2QnIcSgt5OdZuTEXLfuouT7L9KkfsvYzXeX2e1wK1ffD0G9cOn0V1P8WbWMFZ6O47bntQM5PHVN+Jop/vIt2DgUiXkZjsqnTN6D8KkTGK5uXeAtGnw95K4lZMjlHYXYv2PQEmlV/Q5nbTWil9EJBlL+g2fsjYgSvEow65vsd0QaR15ADcD+aAG8jTptp2pgEvT+Cml9Bimf15Z2C7VfC661QoOlzpM5qI0doFkq8tkIps9eRMb6EEAoYLx48EM22GwLKF5tGHkfEfDkcmoWvPiqRAZdPRrOzIdLpHVC4cx0wHC33zihaZ6FQZBjamu/bMeRrcHblvIxiwuuQOmkN1IdTX8QKFyA1BfK+RMnQ5igbsh4ZvCkok/E7GqyyOF5haB8Tycldh0h3Q5SLCnlWia4w6F8h47YVou5o0yfm2XaosAUyhKB0fifCz7WtQgN7J4opX4eMEKgTGxD1W+18ZfhxSAnYIGIdh5Hufb5V0QDVQrO0Boovf4cGtilymj4J6mAiKaPPka6ZEKeeBYPnQkrYjkd3OqkemrFvu+6tRjNiJZqBFyJ14YdmSBcuQMbIIv/OmlNo5t2X/2spITMu4i3rjdx3WwVsR+yqNVKJ3pxdDBJNeg5Cs+vm8GrRkzgZWB8cXeq66IvUhDuINAI5BPVQWHQa+XN2btyHbMTtaBA6oRSUe0/Ya8iRsR2lCOxdGdy/7T/jsI4UxEimuCqUxYkpD0crrxWa6b4oyM6eFshqNyI0ETm6HuStIsb7+z0LJuTC8f+Yzi1COvNnU+EKZJguQ1TpXSS09xDvdQ9EObT8W6EB7YBm/Yum3Z6uujNxNocMhzJnwIBKULIK+ZC3FSYshcPXooH7Hrnabnd5KoqdDEKU80HkbGxBKi0GBdl4shT59CH7IgCGbYS0RognHkBU61U4sz4cr4f05grTUfucRkmkiweY+stNWw8jrtuJ/LgbDcZ40x97VmYi1XGr67mbEWPJBEbBsYZQ8jzz3TXmMx5SL4bD3RE3r4pm534cz6+N+TyBkro90Oyei9hOUg512j59tyI+ZwkyZnas4yU007xtrUVUzr3fIYIyI9OQYL07PJsj7jsU58CjnbRMFFWQQX8ZbVV92Tzrek+9cWilrfQpKzQuwwmiFAYNkKeWjqzyvxGvHE9shrYZesEc4HyIlocandEM2kOsAbT5+DHkYdlHdvvj7zoHYRDOfofKOLGO6UB9V70SpmwZROaCdZ75FPnsy2gKvz1+As5W1dJIB/dDem8XWsruQMl4qGrBIzsdz6ufBU3dp0nrmOdmmefUQ0vfTtqeRf7lHoYImvH2zvh2KKp2Ls7m6zk4ub0G0CYbNpxyRdJ+ASuMXsaFvfO7R7yKHpQyHbS58Evk3xp1CTE5wIcbw1CfnFw0G9rcgmbVfiRgtwAvRgNmu9qTSGxHfjucg4pnmb64HS3PeevxPSDvZEBOrilFgM0mwg6JeNFbnQLyJyW9aIH49w/w6Jrgc3J3nUCzKihePQhlqyPIUdpK/MTtHJzo3WTy0zQ3zHnrJSdCzsktKqquGIrO/HYgsR+zWIZiF1+Q2Fm59jBkHqQHWehjEA0LE9obsO29x4uRUZ0XUL8yioGciyJnr6LNMIeDm7COE3x0ILuo1OJpdOKmTwJ1GyP68xHKLH9M3IOIfAipPvvcTiNezjAP6eHhKBw5idjYshu9EO2ykJHrS6hwIU754aIK+KTp1FgcvRqE+1CnW5vPE3HqVwSegW9DDpZs3ob/DzC58QsKtP8TCe9yfM9rEEF8dgrizQsIiTEYtITpYQcRZyWDHP+Aov6vEewZZqD0zVzkDfXG/zA4iKplokhWWdh2ORKSB3mbYe4KU28CIe4qitnaaajp+J/gbI1WRAZSeWET4FKkq2fAk8+A5Zf4XI1UaFJg74B/IKD8fhQ0mUHw+Y4MJNg9SAiuw9jRDIiO0yGV6GqIPuXSvVU4fSiQCWi3kB+qIy+xG/5n5majUOcGgn856yIk2K04OUP0GxHWQLDmm89jxfG7EfZhv/o+ZauRS/sjsQbB3jL6m+m83/cTQWUkaJsLV/ep0wOFHxeRf3tAReTWz8LZEe/GueTn6Uk5D1cYPIgstZsKNUdu507k59uwN27vQIINCksWFJXIfxrTSyPnIrX2peveQMR3t5I/GlfTPOMAGjy/9NkfCrOt9JwREJ0B0f0w+HfoasE5du7KFuw2nOhZcaAijqCn4xi2SnD2XuhmwYgjyhnecQQqWDhn6SrhqJ2n8efqCaEYfuTnyqZw1TIo4zWgWTB9NGz6K8qjDUJ+fHGjAlpZ/YGP4ZqpcO0HkOrNGf4O65vAO7ciWzIXxaeL9IOhxfC7aX9+yEe4AOXg6kEoqdmOP0a4IDc6imbwOqg2P1a4ACVKQomViI00Rk5QkX+NtTh+mC7k9x/rZKBY8H8Dh4HxcEFOcJULcpBgdySr0eIQ8H/9t8XCEQnZH5wScoK1cCgOAYe5v/Fc4z8CYd7Zx8lurBgEnD4QWV8vsiAt3hb+PwKPIr3sxT5IG+hzv0goBgEP2YmMxGyUeTiCUvONYeiW5LdXUES3m5zhbOSUZCEHoxEMTZrutfF/5wEn7ZoxZlEAAAAASUVORK5CYII=" vertex="1" parent="lkZIMJi9Efqeuj9NXLdD-33">
          <mxGeometry x="60" width="88" height="68" as="geometry" />
        </mxCell>
        <mxCell id="lkZIMJi9Efqeuj9NXLdD-35" value="&lt;font style=&quot;font-size: 14px;&quot;&gt;&lt;b&gt;ClusterMap&lt;/b&gt;&lt;/font&gt;" style="text;html=1;align=center;verticalAlign=middle;resizable=0;points=[];autosize=1;strokeColor=none;fillColor=none;" vertex="1" parent="1">
          <mxGeometry x="180" y="588" width="100" height="30" as="geometry" />
        </mxCell>
        <mxCell id="lkZIMJi9Efqeuj9NXLdD-36" value="" style="curved=1;endArrow=classic;html=1;rounded=0;exitX=0.145;exitY=1;exitDx=0;exitDy=-4.35;exitPerimeter=0;" edge="1" parent="1">
          <mxGeometry width="50" height="50" relative="1" as="geometry">
            <mxPoint x="406" y="380" as="sourcePoint" />
            <mxPoint x="426" y="490" as="targetPoint" />
            <Array as="points">
              <mxPoint x="396" y="444" />
              <mxPoint x="416" y="434" />
            </Array>
          </mxGeometry>
        </mxCell>
        <mxCell id="lkZIMJi9Efqeuj9NXLdD-43" value="&lt;font style=&quot;font-size: 14px;&quot;&gt;&lt;b&gt;ClusterMap&lt;/b&gt;&lt;/font&gt;" style="text;html=1;align=center;verticalAlign=middle;resizable=0;points=[];autosize=1;strokeColor=none;fillColor=none;container=0;" vertex="1" parent="1">
          <mxGeometry x="827" y="587" width="100" height="30" as="geometry" />
        </mxCell>
        <mxCell id="lkZIMJi9Efqeuj9NXLdD-38" value="" style="ellipse;html=1;strokeWidth=4;fillColor=#f5f5f5;strokeColor=#666666;shadow=0;fontSize=10;fontColor=#333333;align=center;fontStyle=0;whiteSpace=wrap;spacing=10;" vertex="1" parent="1">
          <mxGeometry x="777" y="499" width="210" height="90" as="geometry" />
        </mxCell>
        <mxCell id="lkZIMJi9Efqeuj9NXLdD-39" value="" style="ellipse;html=1;strokeWidth=4;fillColor=#d5e8d4;strokeColor=#0000FF;shadow=0;fontSize=10;align=center;fontStyle=0;whiteSpace=wrap;spacing=10;" vertex="1" parent="1">
          <mxGeometry x="807" y="519" width="150" height="70" as="geometry" />
        </mxCell>
        <mxCell id="lkZIMJi9Efqeuj9NXLdD-40" value="" style="ellipse;html=1;strokeWidth=4;fillColor=#f5f5f5;strokeColor=#666666;shadow=0;fontSize=10;fontColor=#333333;align=center;fontStyle=0;whiteSpace=wrap;spacing=10;" vertex="1" parent="1">
          <mxGeometry x="837" y="539" width="90" height="50" as="geometry" />
        </mxCell>
        <mxCell id="lkZIMJi9Efqeuj9NXLdD-41" value="" style="ellipse;html=1;strokeWidth=4;fillColor=#d5e8d4;strokeColor=#0000FF;shadow=0;fontSize=10;align=center;fontStyle=0;whiteSpace=wrap;spacing=10;" vertex="1" parent="1">
          <mxGeometry x="867" y="559" width="30" height="30" as="geometry" />
        </mxCell>
        <mxCell id="lkZIMJi9Efqeuj9NXLdD-42" value="" style="shape=image;verticalLabelPosition=bottom;verticalAlign=top;imageAspect=0;aspect=fixed;image=data:image/png,iVBORw0KGgoAAAANSUhEUgAAAFgAAABECAYAAAAFgfLUAAAABHNCSVQICAgIfAhkiAAAAAlwSFlzAAAOxAAADsQBlSsOGwAAABl0RVh0U29mdHdhcmUAd3d3Lmlua3NjYXBlLm9yZ5vuPBoAABR8SURBVHiczZx5lBRFtsZ/1QsItCK77ALiggqoMICiIsuowFMBQUYFQRQUR9zQRtZiE3E8KiM+AVEZhIFBRUfcQWRUVgFRQVxYZJOdZm/spsn3xxdJZmdlZlV3VzvvO6dOd2ZEZUTeiLj3u/dGVIRiwdiqkPsM0AY4BSyAtGEwdFvxtFdQjK4HeS8A1wEngfeBgRDdleyWIsl+IERrAN8AFT0FO6FEIxi8N/ltFgTR84FVQIanoFj6l5LMhxlMIFa4AFUhZ3wxtFdQTCRWuKD+PZ3sxpIt4AhwY0h5+yS3V0BE05BaCMKfk91icczgsGemFkN7BUADK06FeOUFRrIFbAGfBRcfX5bk9gqIbq1h69Hg8nVpQOtktlgcM/ghyMuOvX3yOEy+EpgDNCiGdsPQElgITIAlYyHveGyVvN2weCjwErAY+J8/tIcFQFmouAMGLoPoCRiWB7edgku6IePyELAdmAc0Kea+XAUsADYBfZGKqgDl9sBteTAiC4YdgJstyFhlylOQcL8xn64UC9sqPN4AXnBdd0Jc8xegjLlXEr3wNmA+0CzJfbgSDeBm006aq+yfwFFghuvet8BxYKDrni3oVcAa/p8I+iZgA/lpUBqasSuAFz31SwA9kfC/Qo5JUdCCYMEC3Az8CGxEg2Djr8ASYC9wkec7ESTor4HvTH8DVKtVEqwSRXmBMFQEdgBX+5SNAV4FtuBPhdJRx39Cgvbov2gDiC6AaC5EsyH6Joyp7qrQHAn2V/wFa/fvN2AYmrFulAUOAKOQoINsU1s0Ub43/TWsyLoIrIVg5ZnPZ7qX3Cn/L/SCmT5ltYCVwN3A34FGwBGfeilAF2AkcBAYB9EtwDKglKfubnirO6ztj1TMc8Ak4PeA/s1BurgeYjqTPOWvodndAXiL2NXmRls0aTKg0z9g7ggc9WfjGHBZyDMKhNuAH4AzQup8DNwBTCH25byw9d9KuPcoRC3/T5ejyGiGtQtwC7AeqAPsB87yqdMcqbcLkKqoF+eZAC3hi31gWQGfecmYwVWQEbgJ6akgdAIeRoL7FugHfBr+6OgZyPgE9NPaCiNrx+lfZdO/W5B6qgb0D6i7BngUuBy4AWhHXOfDOoK/6w1wNBk8eDIwlXDhgnTkeUB14B7gFaT7QlA1D0XjAhA5mUD//heYhtjAvYSvnilIhz8PnGn6GQ+5IWU5RRVwD+BcYHQCdU+iF70X6cD30YuEoN/VsO1gcLn1YZw2/4KcmlFAR2ArYgJBmIlmeQXgLqRna4bUrwmfhUXf3ovTv1BUA3YDVxTgO3WAPUhnlkb07Bafem2RNd8A5w2G4Qdj9e9j2VBqPcG0qRJiDU3N9cfA7Qn08VXgcfP/UOADnzoVgaeBvVBvAuTu8NG/W8DyiyomjA+BIYX4nvtFr0LORnkcw/Y10tE2DYpA+ZXQNQeiv0HmYWhvQbnBaCCWI9rkdQTeQjMXoC6aDPGMIYiRbDDPSkPsp6cpKw9EkRGcDJyj21XfhRctOLQTrJ/B+jtYZycsER/ci3RaeiG+2xn4j+v6BRQn+BFx4PbkF9R9wC5E3QDOR3r5IHChuWfz0++QoO9Eg2ST/vFoxiWKNThOz2VocMag1TcZ2RH3+xxD7MRLJQuF2qahSwr5/XS0dBsja74ZceJRPnVrA/uQMN0vtQD4nNhBbosEm4v4eAS55buQgfUgWg2equDTbn/E60sjGngEOVHeZ1Qw9xcSYE8KStMiaInPB54NrhataxpsjYzbB5D+GAzZjSjN2yjw/SHwFFqKbyIHZJ+rrY/Q7EhBNM9GF+BBROEWA2NdZXOBE4jPpgJfIk7rCvaPbAPWJByBLQf6Q3S1ua6EnKZDaFWNAmYhYz7H1dYbyAPsAlwPrPNKoqAs4gFEX0Ks/+j6OLw4AzgbuANyvoNKT6M4wFE0K7ujpb0EBWEmuh7UF73oucRSq38j4bwADMAxtHchfdsLReqGAb3NPeN+R1uC9Sn5Z2MzYCE8Uhfp22Wmf28C3YC1QB/khVY232mPbMhytApjhAsFE3Bd0+FeQF5wtbyJaBA8iFSG628FrkEjvhrpLxtDkdrpitTBKOBvaIDmex52EnHvjsjiT0cM5RnkjucgB2EL0o2ZaPYthhMz8X/vsrB9DaKe3U3fOrrqrkAz9nnkCU5Ck+B2xOl9kaiKSEGG6U00igGYkwo/nMA/2AKww2SdMS8wAGjlKv8T8C4K+sxHg7oBfwNVA62U2oi/tkQJVzcnf1ltMkbvUP5uGBAoDNGtsTVcN75BA7jAXJcybR5E+n+cqVMT8EkyJD6DH0GzZmK8ioS7lu6yeYgRXOi6twJ1uBGy1p1REMYP24Ev0Az6BBmcha7ys9DynmquT0H0DfMeAUjf77lhe3Y2spFaaooGvQ9Sbb7ChcQEfBFaYncT6raSAd2ehI0hAt61ESfxmQu8jiifjZpoFu9DRuVTxFiCMAnFDqKIxk3FoUp3oplnbyZJhQG3wYagaBuQtchzYyZiJlXMdQaa0V+ildKHEPUA8QWchtzbIUiR+6EEGuWfgIaw+0ZkfT04uRdmpiCDYTsFU5HOK2kqTUE6rrt5sRmxz8mHBcgQTkFCXoPDKO5DKsIOmK8C+sHq3pB7IPZRh36FiV3Rympsbh5GjKeXuR4HLEIhzauRk/R9nD6GYgjShX66OgUJaqOp09gpGlMbom9BNAui+6DrIajVwxS2xckOdMXx7O5Bhi8d6dNc4vvyfRBVe91cV0Cq40kUPm2HPLHlOEH8alBqNwyYAdGV8MRauDYL6lVGMd2HkN6eh6JqTZEduBYJ1PbQ5iEj6mPQE0ND5MHU8NxPQfFf2xD9KYFntUAvXt5cRxCTWGc+a5EquNSUz0D5sa8R9fJDLdO/qxFTsJ/dEen6TWgQb8aZIBHEvUd4njUB6VIbZZDq+Q253OuBLEQ9QTLZh1jFy+Gvng9WWX1IR7PJ+3IdkBFaSsH3DzxvOuRGKo5u/xUZtwqIvJdHkbDdnI5oja2qDxFk2AaZ50xDAmmBDN8pNPheFdgXDZqX5ZRCA32Hz/2HkLOThWY0aIAmonDrVk4zIasWWH7xaasxWMucSNCmbXDNIleFa5BH8x3OKBYUpdGs7+y53xvYiUKYO9AAznWVD4H6KyD6vRNJe3w71F2LYzB7IOflV0Ql55j/3fm/umiVeJOaNhqjwazlud/M9O+Y6d/75rqhKe8AbbZD3k+uSNp6sFqacqsBWNmx4bZT2TD6Jldn7X0FRYFXVVRDVv4G9PIVzN99pt06MPhyGHYqNlw5Ihdu6YKcjJ3muR2RargCrbBtQDk0kxehjEoYMtEKsN+zJI5RfgXZpOcQLfsKaKXJmZvnE67MBatJxLiN7fzbW3gC2gwiPJlYUDyH3M07kT5ciijPJ0hIVyAj9wAwEPrnQOVq/o/6NQemDUcJyjuRAHbh7LOwd1KuRerN3q8chBTEpT9EXuEYNOO7IGM3CxnPeUgeQ+HrytAkKDPzeQSsY2j5+uEoRAptJQNwBqJMC5Ev3wwxhlvR8u6PYzgqw7AdkBrkGWZD1O57BprJD6OgOchYrUGzuAlaifFQC+npQYiWNcbh0qtQ4Kg6UhnpkHsU0oL2QmSnochTkIADPZQi4ASaaXZEzc5pLTd/3RsE90BqFuK6fnBv5KuAjJI7xZODQo1neuqGYStyJv6B7IN71/siZICPmetcSDuIEwDy4kgK+Q2KB8f80iXJwD1IoP1c93oiIbgteQtYFzLI27/HiQffi9TMPTgsYRgyTG+gTX2JohaaXC5uf3rPRnNOZzJIga+/CXnObMAqD9aGWCW95wCU24d87jjZ3wKhF1q2GYgadTGd34zUxB40s81OnbKZ8PiuWCM3eBOU/kh1eBTNtPNRUKoz0uU7kTBKIo+rewL9uwixiUvMs+0N5e3R6pqCHJmuwHootwz2b/Exct+CZatX60ywngFrDWRthAlZMLYKGsnJpsFMglVJoqhK/kRpcySEXmhGt0QC3oP4Z0ngAkjfBw+/ANGv9LlxI5Qebp7RAunGbPOdnkjI640QbDRBg3AOwUg1/bDjIzYTqQC8g5jUCKR6XFu8ykyHV5aCtch8ntQ+tWBMI//WoQtx6FAmiSUP/fAOsV7UsyjC9QOiWJOQrgO98BLgfs93aqKBamSuPwceQ9RuN9KRs33aH0m4+/04saGBZ1HM4ygS9lfAzzgcu73pd9DmE1+UxX+j3sXmJbYQvMkuCHch1eC2uC3RsrPQ0kvDydldgAYzKBbSE+XfGiN6Z/elD6Jix4hddbaH2luX48rpA0i97EEZFBtl0MDlmDbssEA/5EKfjYxioXbFt0V60W8fVzPybxP1OCCj60P0A4geh+ghGPwelN+HoxraIsGuQwH2RcgY2QnIcSgt5OdZuTEXLfuouT7L9KkfsvYzXeX2e1wK1ffD0G9cOn0V1P8WbWMFZ6O47bntQM5PHVN+Jop/vIt2DgUiXkZjsqnTN6D8KkTGK5uXeAtGnw95K4lZMjlHYXYv2PQEmlV/Q5nbTWil9EJBlL+g2fsjYgSvEow65vsd0QaR15ADcD+aAG8jTptp2pgEvT+Cml9Bimf15Z2C7VfC661QoOlzpM5qI0doFkq8tkIps9eRMb6EEAoYLx48EM22GwLKF5tGHkfEfDkcmoWvPiqRAZdPRrOzIdLpHVC4cx0wHC33zihaZ6FQZBjamu/bMeRrcHblvIxiwuuQOmkN1IdTX8QKFyA1BfK+RMnQ5igbsh4ZvCkok/E7GqyyOF5haB8Tycldh0h3Q5SLCnlWia4w6F8h47YVou5o0yfm2XaosAUyhKB0fifCz7WtQgN7J4opX4eMEKgTGxD1W+18ZfhxSAnYIGIdh5Hufb5V0QDVQrO0Boovf4cGtilymj4J6mAiKaPPka6ZEKeeBYPnQkrYjkd3OqkemrFvu+6tRjNiJZqBFyJ14YdmSBcuQMbIIv/OmlNo5t2X/2spITMu4i3rjdx3WwVsR+yqNVKJ3pxdDBJNeg5Cs+vm8GrRkzgZWB8cXeq66IvUhDuINAI5BPVQWHQa+XN2btyHbMTtaBA6oRSUe0/Ya8iRsR2lCOxdGdy/7T/jsI4UxEimuCqUxYkpD0crrxWa6b4oyM6eFshqNyI0ETm6HuStIsb7+z0LJuTC8f+Yzi1COvNnU+EKZJguQ1TpXSS09xDvdQ9EObT8W6EB7YBm/Yum3Z6uujNxNocMhzJnwIBKULIK+ZC3FSYshcPXooH7Hrnabnd5KoqdDEKU80HkbGxBKi0GBdl4shT59CH7IgCGbYS0RognHkBU61U4sz4cr4f05grTUfucRkmkiweY+stNWw8jrtuJ/LgbDcZ40x97VmYi1XGr67mbEWPJBEbBsYZQ8jzz3TXmMx5SL4bD3RE3r4pm534cz6+N+TyBkro90Oyei9hOUg512j59tyI+ZwkyZnas4yU007xtrUVUzr3fIYIyI9OQYL07PJsj7jsU58CjnbRMFFWQQX8ZbVV92Tzrek+9cWilrfQpKzQuwwmiFAYNkKeWjqzyvxGvHE9shrYZesEc4HyIlocandEM2kOsAbT5+DHkYdlHdvvj7zoHYRDOfofKOLGO6UB9V70SpmwZROaCdZ75FPnsy2gKvz1+As5W1dJIB/dDem8XWsruQMl4qGrBIzsdz6ufBU3dp0nrmOdmmefUQ0vfTtqeRf7lHoYImvH2zvh2KKp2Ls7m6zk4ub0G0CYbNpxyRdJ+ASuMXsaFvfO7R7yKHpQyHbS58Evk3xp1CTE5wIcbw1CfnFw0G9rcgmbVfiRgtwAvRgNmu9qTSGxHfjucg4pnmb64HS3PeevxPSDvZEBOrilFgM0mwg6JeNFbnQLyJyW9aIH49w/w6Jrgc3J3nUCzKihePQhlqyPIUdpK/MTtHJzo3WTy0zQ3zHnrJSdCzsktKqquGIrO/HYgsR+zWIZiF1+Q2Fm59jBkHqQHWehjEA0LE9obsO29x4uRUZ0XUL8yioGciyJnr6LNMIeDm7COE3x0ILuo1OJpdOKmTwJ1GyP68xHKLH9M3IOIfAipPvvcTiNezjAP6eHhKBw5idjYshu9EO2ykJHrS6hwIU754aIK+KTp1FgcvRqE+1CnW5vPE3HqVwSegW9DDpZs3ob/DzC58QsKtP8TCe9yfM9rEEF8dgrizQsIiTEYtITpYQcRZyWDHP+Aov6vEewZZqD0zVzkDfXG/zA4iKplokhWWdh2ORKSB3mbYe4KU28CIe4qitnaaajp+J/gbI1WRAZSeWET4FKkq2fAk8+A5Zf4XI1UaFJg74B/IKD8fhQ0mUHw+Y4MJNg9SAiuw9jRDIiO0yGV6GqIPuXSvVU4fSiQCWi3kB+qIy+xG/5n5majUOcGgn856yIk2K04OUP0GxHWQLDmm89jxfG7EfZhv/o+ZauRS/sjsQbB3jL6m+m83/cTQWUkaJsLV/ep0wOFHxeRf3tAReTWz8LZEe/GueTn6Uk5D1cYPIgstZsKNUdu507k59uwN27vQIINCksWFJXIfxrTSyPnIrX2peveQMR3t5I/GlfTPOMAGjy/9NkfCrOt9JwREJ0B0f0w+HfoasE5du7KFuw2nOhZcaAijqCn4xi2SnD2XuhmwYgjyhnecQQqWDhn6SrhqJ2n8efqCaEYfuTnyqZw1TIo4zWgWTB9NGz6K8qjDUJ+fHGjAlpZ/YGP4ZqpcO0HkOrNGf4O65vAO7ciWzIXxaeL9IOhxfC7aX9+yEe4AOXg6kEoqdmOP0a4IDc6imbwOqg2P1a4ACVKQomViI00Rk5QkX+NtTh+mC7k9x/rZKBY8H8Dh4HxcEFOcJULcpBgdySr0eIQ8H/9t8XCEQnZH5wScoK1cCgOAYe5v/Fc4z8CYd7Zx8lurBgEnD4QWV8vsiAt3hb+PwKPIr3sxT5IG+hzv0goBgEP2YmMxGyUeTiCUvONYeiW5LdXUES3m5zhbOSUZCEHoxEMTZrutfF/5wEn7ZoxZlEAAAAASUVORK5CYII=" vertex="1" parent="1">
          <mxGeometry x="837" y="499" width="88" height="68" as="geometry" />
        </mxCell>
        <mxCell id="lkZIMJi9Efqeuj9NXLdD-44" value="" style="curved=1;endArrow=classic;html=1;rounded=0;exitX=0.855;exitY=1;exitDx=0;exitDy=-4.35;exitPerimeter=0;" edge="1" parent="1" source="lkZIMJi9Efqeuj9NXLdD-19">
          <mxGeometry width="50" height="50" relative="1" as="geometry">
            <mxPoint x="745" y="370" as="sourcePoint" />
            <mxPoint x="840" y="490" as="targetPoint" />
            <Array as="points">
              <mxPoint x="780" y="450" />
              <mxPoint x="800" y="430" />
            </Array>
          </mxGeometry>
        </mxCell>
        <mxCell id="lkZIMJi9Efqeuj9NXLdD-45" value="&lt;font style=&quot;font-size: 14px;&quot;&gt;&lt;b&gt;Annotating Profile Interface&lt;/b&gt;&lt;/font&gt;" style="shape=document;whiteSpace=wrap;html=1;boundedLbl=1;fillColor=#d5e8d4;strokeColor=#0000FF;strokeWidth=3;" vertex="1" parent="1">
          <mxGeometry x="700" y="120" width="120" height="80" as="geometry" />
        </mxCell>
        <mxCell id="lkZIMJi9Efqeuj9NXLdD-46" value="" style="curved=1;endArrow=classic;html=1;rounded=0;exitX=0.525;exitY=0.838;exitDx=0;exitDy=0;exitPerimeter=0;entryX=0.5;entryY=0;entryDx=0;entryDy=0;entryPerimeter=0;" edge="1" parent="1" source="lkZIMJi9Efqeuj9NXLdD-45" target="lkZIMJi9Efqeuj9NXLdD-19">
          <mxGeometry width="50" height="50" relative="1" as="geometry">
            <mxPoint x="584" y="149" as="sourcePoint" />
            <mxPoint x="794" y="280" as="targetPoint" />
            <Array as="points">
              <mxPoint x="750" y="230" />
              <mxPoint x="710" y="230" />
            </Array>
          </mxGeometry>
        </mxCell>
      </root>
    </mxGraphModel>
  </diagram>
</mxfile>
